<svg xmlns="http://www.w3.org/2000/svg" fill="none" viewBox="0 0 1560 704">
  <g clip-path="url(#a)">
    <rect width="1560" height="704" fill="#fff" rx="10"/>
    <path fill="#111" d="m911.7 385.3-.3-1.5c-.2-1-.3-1.9-.6-2.9-.2-.6-.4-1.1-.5-1.7-.3-.8-.5-1.7-.9-2.5-.2-.6-.5-1.1-.8-1.7-.4-.8-.8-1.5-1.2-2.3-.3-.5-.6-1.1-1-1.6-.8-1.2-1.7-2.4-2.6-3.6-.5-.6-1.1-1.3-1.7-1.9-.4-.5-.9-.9-1.4-1.3-.6-.6-1.3-1.1-1.9-1.6-.5-.4-1-.8-1.6-1.2-.2-.1-.4-.3-.6-.4L531.1 117.8a34.303 34.303 0 0 0-38.1 0L127.3 361.3c-.2.1-.4.3-.6.4-.5.4-1 .8-1.6 1.2-.7.5-1.3 1.1-1.9 1.6-.5.4-.9.9-1.4 1.3-.6.6-1.2 1.2-1.7 1.9-1 1.1-1.8 2.3-2.6 3.6-.3.5-.7 1-1 1.6-.4.7-.8 1.5-1.2 2.3-.3.5-.5 1.1-.8 1.7-.3.8-.6 1.7-.9 2.5-.2.6-.4 1.1-.5 1.7-.2.9-.4 1.9-.6 2.9l-.3 1.5c-.2 1.5-.3 3-.3 4.5v243.5c0 1.5.1 3 .3 4.5l.3 1.5.6 2.9c.2.6.3 1.1.5 1.7.3.9.6 1.7.9 2.5.2.6.5 1.1.8 1.7.4.8.7 1.5 1.2 2.3.3.5.6 1.1 1 1.6.5.7.9 1.4 1.5 2.1l1.2 1.5c.5.6 1.1 1.3 1.7 1.9.4.5.9.9 1.4 1.3.6.6 1.3 1.1 1.9 1.6.5.4 1 .8 1.6 1.2.2.1.4.3.6.4L493 905.7c5.6 3.8 12.3 5.8 19.1 5.8 6.6 0 13.3-1.9 19.1-5.8l365.6-243.5c.2-.1.4-.3.6-.4.5-.4 1-.8 1.6-1.2.7-.5 1.3-1.1 1.9-1.6.5-.4.9-.9 1.4-1.3.6-.6 1.2-1.2 1.7-1.9l1.2-1.5 1.5-2.1c.3-.5.7-1 1-1.6.4-.8.8-1.5 1.2-2.3.3-.5.5-1.1.8-1.7.3-.8.6-1.7.9-2.5.2-.5.4-1.1.5-1.7.3-.9.4-1.9.6-2.9l.3-1.5c.2-1.5.3-3 .3-4.5V389.8c-.3-1.5-.4-3-.6-4.5ZM546.4 210.5l269.4 179.4-120.3 80.4-149-99.6V210.5h-.1Zm-68.8 0v160.2l-149 99.6-120.3-80.4 269.3-179.4ZM180.7 454.1l86 57.5-86 57.5v-115Zm296.9 358.5L208.3 633.2l120.3-80.4 149 99.6v160.2ZM512 592.8l-121.6-81.2L512 430.3l121.6 81.2L512 592.8Zm34.4 219.8V652.4l149-99.6 120.3 80.4-269.3 179.4ZM843.3 569l-86-57.5 86-57.5v115Z"/>
    <path fill="#3A3C41" d="M-.034 0h1560v704h-1560z"/>
    <path fill="#3A3C41" stroke="#4C494D" stroke-opacity=".27" stroke-width="4" d="m1351.54 347.143-43.572-43.572L1351.54 260l43.572 43.572z"/>
    <path fill="#3A3C41" stroke="#4C494D" stroke-opacity=".27" stroke-width="4" d="m1381.08 347.143-43.572-43.572L1381.08 260l43.572 43.572z"/>
    <path fill="#3A3C41" stroke="#4C494D" stroke-opacity=".27" stroke-width="4" d="m1410.62 347.143-43.572-43.572L1410.62 260l43.572 43.572z"/>
    <path fill="#3A3C41" stroke="#4C494D" stroke-opacity=".27" stroke-width="4" d="m1440.17 347.143-43.572-43.572L1440.17 260l43.572 43.572z"/>
    <path fill="#3A3C41" stroke="#4C494D" stroke-opacity=".27" stroke-width="4" d="m1469.71 347.143-43.572-43.572L1469.71 260l43.572 43.572z"/>
    <path fill="#3A3C41" stroke="#4C494D" stroke-opacity=".27" stroke-width="4" d="m1499.25 347.143-43.572-43.572L1499.25 260l43.572 43.572z"/>
    <path fill="#3A3C41" stroke="#4C494D" stroke-opacity=".27" stroke-width="4" d="m1528.79 347.143-43.572-43.572L1528.79 260l43.572 43.572z"/>
    <path fill="#3A3C41" stroke="#4C494D" stroke-opacity=".27" stroke-width="4" d="m1558.34 347.143-43.57-43.571L1558.34 260l21.78 21.786 21.79 21.786-43.57 43.571Z"/>
    <path fill="#3A3C41" stroke="#4C494D" stroke-opacity=".27" stroke-width="4" d="m1587.88 347.143-43.57-43.571L1587.88 260l43.57 43.572-43.57 43.571Z"/>
    <path fill="#8F8A8A" d="M712.584 676.235a3.617 3.617 0 1 1-.002-7.234 3.617 3.617 0 0 1 .002 7.234Z"/>
    <path fill="#A20AFF" d="M1525.97 178a4.988 4.988 0 0 1-5-5 4.988 4.988 0 0 1 5-5c1.32 0 2.59.527 3.53 1.464.94.938 1.47 2.21 1.47 3.536s-.53 2.598-1.47 3.536a5.004 5.004 0 0 1-3.53 1.464ZM151.966 505a5 5 0 1 1 0-10 5 5 0 0 1 0 10Zm951.004 164a4.988 4.988 0 0 1-5-5 4.988 4.988 0 0 1 5-5c1.32 0 2.59.527 3.53 1.464.94.938 1.47 2.21 1.47 3.536s-.53 2.598-1.47 3.536a5.004 5.004 0 0 1-3.53 1.464Zm433-128a4.988 4.988 0 0 1-5-5 4.988 4.988 0 0 1 5-5c1.32 0 2.59.527 3.53 1.464.94.938 1.47 2.21 1.47 3.536s-.53 2.598-1.47 3.536a5.004 5.004 0 0 1-3.53 1.464Zm-43 0a4.988 4.988 0 0 1-5-5 4.988 4.988 0 0 1 5-5c1.32 0 2.59.527 3.53 1.464.94.938 1.47 2.21 1.47 3.536s-.53 2.598-1.47 3.536a5.004 5.004 0 0 1-3.53 1.464Zm-43 0a4.988 4.988 0 0 1-5-5 4.988 4.988 0 0 1 5-5c1.32 0 2.59.527 3.53 1.464.94.938 1.47 2.21 1.47 3.536s-.53 2.598-1.47 3.536a5.004 5.004 0 0 1-3.53 1.464Z"/>
    <path fill="#B4AFAF" d="M1406.97 541a4.988 4.988 0 0 1-5-5 4.988 4.988 0 0 1 5-5c1.32 0 2.59.527 3.53 1.464.94.938 1.47 2.21 1.47 3.536s-.53 2.598-1.47 3.536a5.004 5.004 0 0 1-3.53 1.464Z"/>
    <path fill="#A20AFF" d="M1535.97 568a4.988 4.988 0 0 1-5-5 4.988 4.988 0 0 1 5-5c1.32 0 2.59.527 3.53 1.464.94.938 1.47 2.21 1.47 3.536s-.53 2.598-1.47 3.536a5.004 5.004 0 0 1-3.53 1.464Z"/>
    <path fill="#B4AFAF" d="M1492.97 568a4.988 4.988 0 0 1-5-5 4.988 4.988 0 0 1 5-5c1.32 0 2.59.527 3.53 1.464.94.938 1.47 2.21 1.47 3.536s-.53 2.598-1.47 3.536a5.004 5.004 0 0 1-3.53 1.464Z"/>
    <path fill="#A20AFF" d="M1535.97 487a4.988 4.988 0 0 1-5-5 4.988 4.988 0 0 1 5-5c1.32 0 2.59.527 3.53 1.464.94.938 1.47 2.21 1.47 3.536s-.53 2.598-1.47 3.536a5.004 5.004 0 0 1-3.53 1.464Zm-86 81a4.988 4.988 0 0 1-5-5 4.988 4.988 0 0 1 5-5c1.32 0 2.59.527 3.53 1.464.94.938 1.47 2.21 1.47 3.536s-.53 2.598-1.47 3.536a5.004 5.004 0 0 1-3.53 1.464Z"/>
    <path fill="#B4AFAF" d="M1492.97 487a4.988 4.988 0 0 1-5-5 4.988 4.988 0 0 1 5-5c1.32 0 2.59.527 3.53 1.464.94.938 1.47 2.21 1.47 3.536s-.53 2.598-1.47 3.536a5.004 5.004 0 0 1-3.53 1.464Zm-86 81a4.988 4.988 0 0 1-5-5 4.988 4.988 0 0 1 5-5c1.32 0 2.59.527 3.53 1.464.94.938 1.47 2.21 1.47 3.536s-.53 2.598-1.47 3.536a5.004 5.004 0 0 1-3.53 1.464Z"/>
    <path fill="#A20AFF" d="M1449.97 487a4.988 4.988 0 0 1-5-5 4.988 4.988 0 0 1 5-5c1.32 0 2.59.527 3.53 1.464.94.938 1.47 2.21 1.47 3.536s-.53 2.598-1.47 3.536a5.004 5.004 0 0 1-3.53 1.464Z"/>
    <path fill="#B4AFAF" d="M1406.97 487a4.988 4.988 0 0 1-5-5 4.988 4.988 0 0 1 5-5c1.32 0 2.59.527 3.53 1.464.94.938 1.47 2.21 1.47 3.536s-.53 2.598-1.47 3.536a5.004 5.004 0 0 1-3.53 1.464Zm129 108a4.988 4.988 0 0 1-5-5 4.988 4.988 0 0 1 5-5c1.32 0 2.59.527 3.53 1.464.94.938 1.47 2.21 1.47 3.536s-.53 2.598-1.47 3.536a5.004 5.004 0 0 1-3.53 1.464Z"/>
    <path fill="#A20AFF" d="M1492.97 595a4.988 4.988 0 0 1-5-5 4.988 4.988 0 0 1 5-5c1.32 0 2.59.527 3.53 1.464.94.938 1.47 2.21 1.47 3.536s-.53 2.598-1.47 3.536a5.004 5.004 0 0 1-3.53 1.464Zm43-81a4.988 4.988 0 0 1-5-5 4.988 4.988 0 0 1 5-5c1.32 0 2.59.527 3.53 1.464.94.938 1.47 2.21 1.47 3.536s-.53 2.598-1.47 3.536a5.004 5.004 0 0 1-3.53 1.464Zm-86 81a4.988 4.988 0 0 1-5-5 4.988 4.988 0 0 1 5-5c1.32 0 2.59.527 3.53 1.464.94.938 1.47 2.21 1.47 3.536s-.53 2.598-1.47 3.536a5.004 5.004 0 0 1-3.53 1.464Zm43-81a4.988 4.988 0 0 1-5-5 4.988 4.988 0 0 1 5-5c1.32 0 2.59.527 3.53 1.464.94.938 1.47 2.21 1.47 3.536s-.53 2.598-1.47 3.536a5.004 5.004 0 0 1-3.53 1.464Zm-86 81a4.988 4.988 0 0 1-5-5 4.988 4.988 0 0 1 5-5c1.32 0 2.59.527 3.53 1.464.94.938 1.47 2.21 1.47 3.536s-.53 2.598-1.47 3.536a5.004 5.004 0 0 1-3.53 1.464Zm43-81a4.988 4.988 0 0 1-5-5 4.988 4.988 0 0 1 5-5c1.32 0 2.59.527 3.53 1.464.94.938 1.47 2.21 1.47 3.536s-.53 2.598-1.47 3.536a5.004 5.004 0 0 1-3.53 1.464Zm-43 0a4.988 4.988 0 0 1-5-5 4.988 4.988 0 0 1 5-5c1.32 0 2.59.527 3.53 1.464.94.938 1.47 2.21 1.47 3.536s-.53 2.598-1.47 3.536a5.004 5.004 0 0 1-3.53 1.464Z"/>
    <path fill="#8F8A8A" d="M403.966 24a4.998 4.998 0 0 1-5-5 4.999 4.999 0 1 1 5 5Z"/>
    <path fill="#A20AFF" d="M356.966 24a4.998 4.998 0 0 1-5-5 4.999 4.999 0 1 1 5 5Zm-47 0a4.998 4.998 0 0 1-5-5 4.999 4.999 0 1 1 5 5Zm-47 0a4.998 4.998 0 0 1-5-5 4.999 4.999 0 1 1 5 5Z"/>
    <path fill="#8F8A8A" d="M215.966 24a4.998 4.998 0 0 1-5-5 4.999 4.999 0 1 1 5 5Z"/>
    <path fill="#A20AFF" d="M168.966 24a4.998 4.998 0 0 1-5-5 4.999 4.999 0 1 1 5 5Z"/>
    <path fill="#8F8A8A" d="M121.966 24a4.998 4.998 0 0 1-5-5 4.999 4.999 0 1 1 5 5Z"/>
    <path fill="#A20AFF" d="M74.966 24a5 5 0 1 1 0-10 5 5 0 0 1 0 10Zm-47 0a5 5 0 1 1 0-10 5 5 0 0 1 0 10Zm376 50a4.998 4.998 0 0 1-5-5 4.999 4.999 0 1 1 5 5Zm-47 0a4.998 4.998 0 0 1-5-5 4.999 4.999 0 1 1 5 5Z"/>
    <path fill="#8F8A8A" d="M309.966 74a4.998 4.998 0 0 1-5-5 4.999 4.999 0 1 1 5 5Z"/>
    <path fill="#A20AFF" d="M262.966 74a4.998 4.998 0 0 1-5-5 4.999 4.999 0 1 1 5 5Z"/>
    <path fill="#8F8A8A" d="M215.966 74a4.998 4.998 0 0 1-5-5 4.999 4.999 0 1 1 5 5Z"/>
    <path fill="#A20AFF" d="M168.966 74a4.998 4.998 0 0 1-5-5 4.999 4.999 0 1 1 5 5Z"/>
    <path fill="#8F8A8A" d="M121.966 74a4.998 4.998 0 0 1-5-5 4.999 4.999 0 1 1 5 5Z"/>
    <path fill="#A20AFF" d="M74.966 74a5 5 0 1 1 0-10 5 5 0 0 1 0 10Zm-47 0a5 5 0 1 1 0-10 5 5 0 0 1 0 10Z"/>
    <path fill="#8F8A8A" d="M403.966 124a5 5 0 1 1 0-10 5 5 0 0 1 0 10Zm-47 0a5 5 0 1 1 0-10 5 5 0 0 1 0 10Z"/>
    <path fill="#A20AFF" d="M309.966 124a5 5 0 1 1 0-10 5 5 0 0 1 0 10Zm-47 0a5 5 0 1 1 0-10 5 5 0 0 1 0 10Zm-47 0a5 5 0 1 1 0-10 5 5 0 0 1 0 10Zm-47 0a5 5 0 1 1 0-10 5 5 0 0 1 0 10Zm-47 0a5 5 0 1 1 0-10 5 5 0 0 1 0 10Zm-47 0a5.003 5.003 0 0 1-5-5 5.002 5.002 0 0 1 8.536-3.536A5.002 5.002 0 0 1 74.966 124Zm-47 0a5.003 5.003 0 0 1-5-5 5.002 5.002 0 0 1 8.536-3.536A5.002 5.002 0 0 1 27.966 124Z"/>
    <path stroke="#B4AFAF" d="M1253.5-9c0 98 67.5 254.5 320 215.5M416 722c119.436 50.284 637.4-271.09 669.5-16.5"/>
    <path stroke="#B4AFAF" stroke-width="3" d="M1282.5-2c-4.97 43.5 76.5 157 277.47 135"/>
    <path stroke="#A20AFF" stroke-width="8" d="M1409.5-10.5c18.53 31.5 117.5 117 212.5 79"/>
    <path stroke="#A20AFF" stroke-width="10" d="M340 768.5c-255.5 29-215-149-345-124.001m1015.7 62.722c25.97-191.886-344.515 90.453-350.7 9.934"/>
    <path fill="#AFABAB" d="M296.966 656.429h-27.429V629h-9.142v27.429h-27.429v9.142h27.429V693h9.142v-27.429h27.429v-9.142Z"/>
    <path fill="#BBB4B4" d="M1395.97 24.143h-11.15V13h-3.71v11.143h-11.14v3.714h11.14V39h3.71V27.857h11.15v-3.714Z"/>
    <path fill="#3A3C41" stroke="#4C494D" stroke-opacity=".27" stroke-width="4" d="m279.066 209.031 53.869 53.869-53.869 53.869-53.869-53.87z"/>
    <path fill="#3A3C41" stroke="#4C494D" stroke-opacity=".27" stroke-width="4" d="m242.542 209.031 53.869 53.869-53.869 53.869-53.869-53.87z"/>
    <path fill="#3A3C41" stroke="#4C494D" stroke-opacity=".27" stroke-width="4" d="m206.017 209.031 53.869 53.869-53.869 53.869-53.869-53.87z"/>
    <path fill="#3A3C41" stroke="#4C494D" stroke-opacity=".27" stroke-width="4" d="m169.492 209.031 53.869 53.869-53.869 53.869-53.869-53.87z"/>
    <path fill="#3A3C41" stroke="#4C494D" stroke-opacity=".27" stroke-width="4" d="m132.968 209.031 53.869 53.869-53.869 53.869-53.869-53.87z"/>
    <path fill="#3A3C41" stroke="#4C494D" stroke-opacity=".27" stroke-width="4" d="m96.443 209.031 53.869 53.869-53.869 53.869-53.869-53.87z"/>
    <path fill="#3A3C41" stroke="#4C494D" stroke-opacity=".27" stroke-width="4" d="m59.918 209.03 53.869 53.87-53.869 53.868L6.05 262.9z"/>
    <path fill="#3A3C41" stroke="#4C494D" stroke-opacity=".27" stroke-width="4" d="M23.394 209.031 77.263 262.9l-53.87 53.869-53.868-53.869z"/>
    <path fill="#3A3C41" stroke="#4C494D" stroke-opacity=".27" stroke-width="4" d="M-13.131 209.031 40.738 262.9l-53.869 53.869L-67 262.899z"/>
    <path stroke="#FFD814" stroke-width="7" d="m267.966 452.556 117.73-275.934 275.934 117.73L543.9 570.285z"/>
    <path fill="#fff" d="M886.874 240.441c-3.234 0-6.132-.525-8.694-1.575-2.562-1.05-4.62-2.604-6.174-4.662-1.512-2.058-2.31-4.536-2.394-7.434h11.466c.168 1.638.735 2.898 1.701 3.78.966.84 2.226 1.26 3.78 1.26 1.596 0 2.856-.357 3.78-1.071.924-.756 1.386-1.785 1.386-3.087 0-1.092-.378-1.995-1.134-2.709-.714-.714-1.617-1.302-2.709-1.764-1.05-.462-2.562-.987-4.536-1.575-2.856-.882-5.187-1.764-6.993-2.646-1.806-.882-3.36-2.184-4.662-3.906s-1.953-3.969-1.953-6.741c0-4.116 1.491-7.329 4.473-9.639 2.982-2.352 6.867-3.528 11.655-3.528 4.872 0 8.799 1.176 11.781 3.528 2.982 2.31 4.578 5.544 4.788 9.702H890.78c-.084-1.428-.609-2.541-1.575-3.339-.966-.84-2.205-1.26-3.717-1.26-1.302 0-2.352.357-3.15 1.071-.798.672-1.197 1.659-1.197 2.961 0 1.428.672 2.541 2.016 3.339 1.344.798 3.444 1.659 6.3 2.583 2.856.966 5.166 1.89 6.93 2.772 1.806.882 3.36 2.163 4.662 3.843 1.302 1.68 1.953 3.843 1.953 6.489 0 2.52-.651 4.809-1.953 6.867-1.26 2.058-3.108 3.696-5.544 4.914-2.436 1.218-5.313 1.827-8.631 1.827Zm21.561-18.081c0-3.612.672-6.783 2.016-9.513 1.386-2.73 3.255-4.83 5.607-6.3 2.352-1.47 4.977-2.205 7.875-2.205 2.478 0 4.641.504 6.489 1.512 1.89 1.008 3.339 2.331 4.347 3.969v-4.977h10.773V240h-10.773v-4.977c-1.05 1.638-2.52 2.961-4.41 3.969-1.848 1.008-4.011 1.512-6.489 1.512-2.856 0-5.46-.735-7.812-2.205-2.352-1.512-4.221-3.633-5.607-6.363-1.344-2.772-2.016-5.964-2.016-9.576Zm26.334.063c0-2.688-.756-4.809-2.268-6.363-1.47-1.554-3.276-2.331-5.418-2.331-2.142 0-3.969.777-5.481 2.331-1.47 1.512-2.205 3.612-2.205 6.3 0 2.688.735 4.83 2.205 6.426 1.512 1.554 3.339 2.331 5.481 2.331s3.948-.777 5.418-2.331c1.512-1.554 2.268-3.675 2.268-6.363Zm24.867-21.231c-1.89 0-3.444-.546-4.662-1.638-1.176-1.134-1.764-2.52-1.764-4.158 0-1.68.588-3.066 1.764-4.158 1.218-1.134 2.772-1.701 4.662-1.701 1.848 0 3.36.567 4.536 1.701 1.218 1.092 1.827 2.478 1.827 4.158 0 1.638-.609 3.024-1.827 4.158-1.176 1.092-2.688 1.638-4.536 1.638Zm5.418 43.344c0 4.326-1.092 7.434-3.276 9.324-2.184 1.932-5.229 2.898-9.135 2.898h-4.221v-9.135h2.583c1.176 0 2.016-.231 2.52-.693.504-.462.756-1.218.756-2.268v-39.816h10.773v39.69Zm14.045-43.344c-1.89 0-3.444-.546-4.662-1.638-1.176-1.134-1.764-2.52-1.764-4.158 0-1.68.588-3.066 1.764-4.158 1.218-1.134 2.772-1.701 4.662-1.701 1.848 0 3.36.567 4.536 1.701 1.218 1.092 1.827 2.478 1.827 4.158 0 1.638-.609 3.024-1.827 4.158-1.176 1.092-2.688 1.638-4.536 1.638Zm5.418 43.344c0 4.326-1.092 7.434-3.276 9.324-2.184 1.932-5.229 2.898-9.135 2.898h-4.221v-9.135h2.583c1.176 0 2.016-.231 2.52-.693.504-.462.756-1.218.756-2.268v-39.816h10.773v39.69Zm6.549-22.176c0-3.612.672-6.783 2.016-9.513 1.386-2.73 3.255-4.83 5.607-6.3 2.351-1.47 4.981-2.205 7.871-2.205 2.48 0 4.64.504 6.49 1.512 1.89 1.008 3.34 2.331 4.35 3.969v-4.977h10.77V240h-10.77v-4.977c-1.05 1.638-2.52 2.961-4.41 3.969-1.85 1.008-4.01 1.512-6.49 1.512-2.86 0-5.46-.735-7.811-2.205-2.352-1.512-4.221-3.633-5.607-6.363-1.344-2.772-2.016-5.964-2.016-9.576Zm26.334.063c0-2.688-.76-4.809-2.27-6.363-1.47-1.554-3.27-2.331-5.42-2.331-2.14 0-3.97.777-5.48 2.331-1.47 1.512-2.2 3.612-2.2 6.3 0 2.688.73 4.83 2.2 6.426 1.51 1.554 3.34 2.331 5.48 2.331 2.15 0 3.95-.777 5.42-2.331 1.51-1.554 2.27-3.675 2.27-6.363Zm17.37-.063c0-3.612.67-6.783 2.02-9.513 1.38-2.73 3.25-4.83 5.6-6.3 2.35-1.47 4.98-2.205 7.88-2.205 2.31 0 4.41.483 6.3 1.449 1.93.966 3.44 2.268 4.53 3.906V193.38h10.78V240h-10.78v-5.04c-1 1.68-2.45 3.024-4.34 4.032-1.85 1.008-4.01 1.512-6.49 1.512-2.9 0-5.53-.735-7.88-2.205-2.35-1.512-4.22-3.633-5.6-6.363-1.35-2.772-2.02-5.964-2.02-9.576Zm26.33.063c0-2.688-.75-4.809-2.26-6.363-1.47-1.554-3.28-2.331-5.42-2.331s-3.97.777-5.48 2.331c-1.47 1.512-2.21 3.612-2.21 6.3 0 2.688.74 4.83 2.21 6.426 1.51 1.554 3.34 2.331 5.48 2.331 2.14 0 3.95-.777 5.42-2.331 1.51-1.554 2.26-3.675 2.26-6.363Zm-151.924 40.351V307h-10.773v-18.207h-16.758V307h-10.773v-44.226h10.773v17.325h16.758v-17.325h10.773Zm6.58 26.586c0-3.612.672-6.783 2.016-9.513 1.386-2.73 3.255-4.83 5.607-6.3 2.352-1.47 4.977-2.205 7.875-2.205 2.478 0 4.641.504 6.489 1.512 1.89 1.008 3.339 2.331 4.347 3.969v-4.977h10.773V307H942.09v-4.977c-1.05 1.638-2.52 2.961-4.41 3.969-1.848 1.008-4.011 1.512-6.489 1.512-2.856 0-5.46-.735-7.812-2.205-2.352-1.512-4.221-3.633-5.607-6.363-1.344-2.772-2.016-5.964-2.016-9.576Zm26.334.063c0-2.688-.756-4.809-2.268-6.363-1.47-1.554-3.276-2.331-5.418-2.331-2.142 0-3.969.777-5.481 2.331-1.47 1.512-2.205 3.612-2.205 6.3 0 2.688.735 4.83 2.205 6.426 1.512 1.554 3.339 2.331 5.481 2.331s3.948-.777 5.418-2.331c1.512-1.554 2.268-3.675 2.268-6.363Zm17.37-.063c0-3.612.672-6.783 2.016-9.513 1.386-2.73 3.255-4.83 5.607-6.3 2.352-1.47 4.977-2.205 7.875-2.205 2.31 0 4.41.483 6.3 1.449 1.932.966 3.444 2.268 4.536 3.906V260.38h10.773V307h-10.773v-5.04c-1.008 1.68-2.457 3.024-4.347 4.032-1.848 1.008-4.011 1.512-6.489 1.512-2.898 0-5.523-.735-7.875-2.205-2.352-1.512-4.221-3.633-5.607-6.363-1.344-2.772-2.016-5.964-2.016-9.576Zm26.334.063c0-2.688-.756-4.809-2.268-6.363-1.47-1.554-3.276-2.331-5.418-2.331-2.142 0-3.969.777-5.481 2.331-1.47 1.512-2.205 3.612-2.205 6.3 0 2.688.735 4.83 2.205 6.426 1.512 1.554 3.339 2.331 5.481 2.331s3.948-.777 5.418-2.331c1.512-1.554 2.268-3.675 2.268-6.363Zm17.366-.063c0-3.612.68-6.783 2.02-9.513 1.39-2.73 3.25-4.83 5.61-6.3 2.35-1.47 4.97-2.205 7.87-2.205 2.48 0 4.64.504 6.49 1.512 1.89 1.008 3.34 2.331 4.35 3.969v-4.977h10.77V307h-10.77v-4.977c-1.05 1.638-2.52 2.961-4.41 3.969-1.85 1.008-4.01 1.512-6.49 1.512-2.86 0-5.46-.735-7.81-2.205-2.36-1.512-4.22-3.633-5.61-6.363-1.34-2.772-2.02-5.964-2.02-9.576Zm26.34.063c0-2.688-.76-4.809-2.27-6.363-1.47-1.554-3.28-2.331-5.42-2.331s-3.97.777-5.48 2.331c-1.47 1.512-2.2 3.612-2.2 6.3 0 2.688.73 4.83 2.2 6.426 1.51 1.554 3.34 2.331 5.48 2.331 2.14 0 3.95-.777 5.42-2.331 1.51-1.554 2.27-3.675 2.27-6.363Zm37.15-8.631h-5.8V307h-10.77v-26.208h-3.91v-8.946h3.91v-1.008c0-4.326 1.24-7.602 3.72-9.828 2.48-2.268 6.11-3.402 10.9-3.402.79 0 1.38.021 1.76.063v9.135c-2.06-.126-3.51.168-4.35.882-.84.714-1.26 1.995-1.26 3.843v.315h5.8v8.946Zm11.42-12.6c-1.89 0-3.44-.546-4.66-1.638-1.17-1.134-1.76-2.52-1.76-4.158 0-1.68.59-3.066 1.76-4.158 1.22-1.134 2.77-1.701 4.66-1.701 1.85 0 3.36.567 4.54 1.701 1.22 1.092 1.83 2.478 1.83 4.158 0 1.638-.61 3.024-1.83 4.158-1.18 1.092-2.69 1.638-4.54 1.638Zm5.36 3.654V307h-10.77v-35.154h10.77Z"/>
    <path fill="#FFD814" d="M886.412 169v-11.217h-11.4V169h-5.448v-26.142h5.448v10.393h11.4v-10.393h5.448V169h-5.448Zm18.482.366c-3.021 0-5.341-.885-6.959-2.655-1.617-1.801-2.426-4.411-2.426-7.829 0-3.327.824-5.876 2.472-7.646 1.648-1.801 3.983-2.701 7.005-2.701 2.869 0 5.067.961 6.593 2.884 1.526 1.923 2.289 4.716 2.289 8.379v.183h-12.865c0 1.953.351 3.433 1.053 4.441.732.976 1.77 1.465 3.113 1.465 1.831 0 2.991-.794 3.48-2.381l4.944.412c-1.434 3.632-4.334 5.448-8.699 5.448Zm0-17.535c-1.22 0-2.167.428-2.838 1.282-.641.855-.977 2.045-1.007 3.571h7.783c-.092-1.617-.489-2.823-1.191-3.617-.671-.824-1.587-1.236-2.747-1.236ZM917.434 169v-27.516h5.22V169h-5.22Zm10.16 0v-27.516h5.219V169h-5.219Zm29.25-10.072c0 3.266-.915 5.829-2.747 7.691-1.801 1.832-4.288 2.747-7.462 2.747-3.144 0-5.617-.915-7.417-2.747-1.771-1.862-2.656-4.425-2.656-7.691 0-3.236.885-5.769 2.656-7.6 1.8-1.862 4.303-2.793 7.508-2.793 3.266 0 5.769.9 7.509 2.701 1.739 1.77 2.609 4.334 2.609 7.692Zm-5.494 0c0-2.381-.397-4.106-1.19-5.174-.763-1.068-1.877-1.602-3.342-1.602-3.175 0-4.762 2.258-4.762 6.776 0 2.228.382 3.937 1.145 5.127.793 1.16 1.907 1.74 3.342 1.74 3.205 0 4.807-2.289 4.807-6.867Zm14.535 8.836c0 1.495-.167 2.808-.503 3.937a9.706 9.706 0 0 1-1.511 3.159h-3.434a12.26 12.26 0 0 0 1.786-2.884c.458-1.038.687-2.03.687-2.976h-2.381v-5.677h5.356v4.441ZM980.273 169v-26.142h5.448V169h-5.448Zm22.067 0v-11.263c0-3.54-1.01-5.31-3.026-5.31-1.038 0-1.892.549-2.564 1.648-.671 1.068-1.007 2.457-1.007 4.166V169h-5.219v-15.566c0-1.069-.016-1.954-.046-2.656a157.62 157.62 0 0 0-.092-1.877h4.945c.03.244.076.885.137 1.923.092 1.007.138 1.709.138 2.106h.045c.641-1.526 1.435-2.64 2.381-3.342.977-.702 2.138-1.053 3.478-1.053 3.08 0 4.95 1.465 5.59 4.395h.09c.67-1.557 1.48-2.671 2.43-3.342.97-.702 2.19-1.053 3.66-1.053 1.95 0 3.45.671 4.48 2.014 1.04 1.313 1.56 3.22 1.56 5.723V169h-5.22v-11.263c0-3.54-1.01-5.31-3.02-5.31-1.01 0-1.85.503-2.52 1.51-.64.977-.99 2.335-1.05 4.075V169h-5.17Z"/>
    <path fill="#C5C2C2" d="M885.446 379.8c.04.16.06.28.06.36 0 .26-.09.47-.27.63-.18.16-.39.24-.63.24-.2 0-.38-.05-.54-.15-.14-.12-.25-.27-.33-.45l-2.25-5.49h-9.75l-2.22 5.49c-.16.4-.43.6-.81.6-.28 0-.49-.07-.63-.21-.14-.14-.22-.33-.24-.57v-.09c0-.12.01-.21.03-.27l7.92-19.38c.16-.4.46-.6.9-.6.2 0 .37.06.51.18.16.1.28.24.36.42l7.89 19.29Zm-4.68-6.63-4.2-10.26-4.14 10.26h8.34Zm23.487-7.62c1.32 0 2.52.34 3.6 1.02 1.08.66 1.92 1.59 2.52 2.79.62 1.18.93 2.51.93 3.99 0 1.5-.31 2.85-.93 4.05-.6 1.18-1.44 2.11-2.52 2.79-1.06.68-2.25 1.02-3.57 1.02-1.16 0-2.23-.27-3.21-.81-.96-.56-1.73-1.3-2.31-2.22v7.92c0 .26-.09.47-.27.63-.16.18-.37.27-.63.27s-.48-.09-.66-.27c-.16-.16-.24-.37-.24-.63v-19.56c0-.26.08-.48.24-.66.18-.18.4-.27.66-.27s.47.09.63.27c.18.18.27.4.27.66v2.04c.52-.94 1.27-1.68 2.25-2.22.98-.54 2.06-.81 3.24-.81Zm-.15 13.98c1.04 0 1.97-.26 2.79-.78.84-.54 1.49-1.28 1.95-2.22.48-.94.72-2 .72-3.18 0-1.16-.24-2.2-.72-3.12-.46-.94-1.11-1.67-1.95-2.19-.82-.54-1.75-.81-2.79-.81-1.06 0-2.01.26-2.85.78-.84.52-1.49 1.25-1.95 2.19-.46.92-.69 1.97-.69 3.15s.23 2.24.69 3.18c.46.94 1.11 1.68 1.95 2.22.84.52 1.79.78 2.85.78Zm18.077-14.22c.4 0 .76.08 1.08.24.32.16.48.4.48.72 0 .28-.08.51-.24.69-.16.16-.35.24-.57.24-.1 0-.3-.05-.6-.15-.28-.1-.55-.15-.81-.15-.74 0-1.48.29-2.22.87-.72.56-1.32 1.29-1.8 2.19-.46.9-.69 1.81-.69 2.73v7.41c0 .26-.09.48-.27.66-.16.16-.37.24-.63.24s-.48-.08-.66-.24a.958.958 0 0 1-.24-.66v-13.44c0-.26.08-.47.24-.63.18-.18.4-.27.66-.27s.47.09.63.27c.18.16.27.37.27.63v2.64c.46-1.14 1.15-2.08 2.07-2.82.94-.76 2.04-1.15 3.3-1.17Zm17.859 8.01c0 1.5-.33 2.86-.99 4.08a7.419 7.419 0 0 1-2.73 2.88c-1.16.68-2.45 1.02-3.87 1.02s-2.71-.34-3.87-1.02a7.419 7.419 0 0 1-2.73-2.88c-.66-1.22-.99-2.58-.99-4.08s.33-2.86.99-4.08a7.419 7.419 0 0 1 2.73-2.88c1.16-.7 2.45-1.05 3.87-1.05s2.71.35 3.87 1.05c1.16.7 2.07 1.66 2.73 2.88.66 1.22.99 2.58.99 4.08Zm-1.8 0c0-1.2-.25-2.28-.75-3.24-.5-.96-1.2-1.71-2.1-2.25-.88-.56-1.86-.84-2.94-.84-1.08 0-2.06.28-2.94.84-.88.54-1.58 1.29-2.1 2.25-.5.96-.75 2.04-.75 3.24 0 1.18.25 2.25.75 3.21.52.96 1.22 1.72 2.1 2.28.88.54 1.86.81 2.94.81 1.08 0 2.06-.27 2.94-.81.9-.54 1.6-1.29 2.1-2.25s.75-2.04.75-3.24Zm18.442-7.65c.26 0 .47.09.63.27.18.16.27.38.27.66v12.99c0 1.56-.33 2.89-.99 3.99a6.313 6.313 0 0 1-2.67 2.55c-1.12.58-2.41.87-3.87.87-.7 0-1.44-.09-2.22-.27-.76-.18-1.42-.41-1.98-.69-.54-.28-.85-.57-.93-.87a.66.66 0 0 1-.21-.48c0-.2.09-.36.27-.48.08-.06.18-.09.3-.09s.35.07.69.21l.63.27c1.24.48 2.4.72 3.48.72 1.78 0 3.17-.51 4.17-1.53 1.02-1 1.53-2.36 1.53-4.08v-1.86c-.5 1.08-1.29 1.93-2.37 2.55-1.08.6-2.21.9-3.39.9-1.38 0-2.63-.34-3.75-1.02-1.1-.7-1.97-1.66-2.61-2.88-.64-1.22-.96-2.59-.96-4.11 0-1.5.32-2.86.96-4.08.64-1.22 1.51-2.17 2.61-2.85 1.12-.7 2.36-1.05 3.72-1.05 1.26 0 2.41.32 3.45.96 1.06.62 1.84 1.37 2.34 2.25v-1.92c0-.26.08-.48.24-.66.18-.18.4-.27.66-.27Zm-6.51 13.95c1.1 0 2.08-.26 2.94-.78.88-.54 1.56-1.29 2.04-2.25.5-.98.75-2.08.75-3.3 0-1.22-.25-2.31-.75-3.27-.48-.96-1.16-1.7-2.04-2.22-.86-.54-1.84-.81-2.94-.81-1.08 0-2.06.28-2.94.84-.86.54-1.54 1.29-2.04 2.25-.48.96-.72 2.03-.72 3.21 0 1.2.24 2.28.72 3.24.5.96 1.18 1.72 2.04 2.28.88.54 1.86.81 2.94.81Zm19.323-14.31c.4 0 .76.08 1.08.24.32.16.48.4.48.72 0 .28-.08.51-.24.69-.16.16-.35.24-.57.24-.1 0-.3-.05-.6-.15-.28-.1-.55-.15-.81-.15-.74 0-1.48.29-2.22.87-.72.56-1.32 1.29-1.8 2.19-.46.9-.69 1.81-.69 2.73v7.41c0 .26-.09.48-.27.66-.16.16-.37.24-.63.24s-.48-.08-.66-.24a.958.958 0 0 1-.24-.66v-13.44c0-.26.08-.47.24-.63.18-.18.4-.27.66-.27s.47.09.63.27c.18.16.27.37.27.63v2.64c.46-1.14 1.15-2.08 2.07-2.82.94-.76 2.04-1.15 3.3-1.17Zm16.472.36c.26 0 .47.09.63.27.18.18.27.4.27.66v13.5c0 .26-.09.48-.27.66-.16.16-.37.24-.63.24s-.48-.08-.66-.24a.958.958 0 0 1-.24-.66v-2.01c-.5.9-1.25 1.66-2.25 2.28-1 .62-2.09.93-3.27.93-1.34 0-2.55-.35-3.63-1.05-1.06-.7-1.9-1.66-2.52-2.88-.6-1.22-.9-2.59-.9-4.11 0-1.52.31-2.88.93-4.08.62-1.22 1.46-2.17 2.52-2.85a6.567 6.567 0 0 1 3.57-1.02c1.2 0 2.3.29 3.3.87 1 .58 1.75 1.34 2.25 2.28v-1.86c0-.26.08-.48.24-.66.18-.18.4-.27.66-.27Zm-6.24 13.95c1.04 0 1.97-.27 2.79-.81.84-.56 1.49-1.32 1.95-2.28.48-.98.72-2.07.72-3.27 0-1.16-.24-2.22-.72-3.18-.46-.96-1.11-1.71-1.95-2.25-.82-.56-1.75-.84-2.79-.84s-1.98.27-2.82.81c-.82.54-1.47 1.29-1.95 2.25-.46.94-.69 2.01-.69 3.21 0 1.2.23 2.29.69 3.27.46.96 1.1 1.72 1.92 2.28.84.54 1.79.81 2.85.81Zm29.234-14.07c1.8 0 3.12.56 3.96 1.68.86 1.1 1.29 2.56 1.29 4.38v8.49c0 .26-.09.48-.27.66-.16.16-.37.24-.63.24s-.48-.08-.66-.24a.958.958 0 0 1-.24-.66v-8.4c0-1.32-.32-2.39-.96-3.21-.62-.84-1.59-1.26-2.91-1.26-.84 0-1.64.2-2.4.6-.74.4-1.34.95-1.8 1.65-.46.68-.69 1.42-.69 2.22v8.4c0 .26-.09.48-.27.66-.16.16-.37.24-.63.24s-.48-.08-.66-.24a.958.958 0 0 1-.24-.66v-8.49c0-1.3-.3-2.35-.9-3.15-.6-.82-1.537-1.23-2.817-1.23-.82 0-1.6.2-2.34.6-.72.4-1.31.94-1.77 1.62-.44.66-.66 1.38-.66 2.16v8.49c0 .26-.09.48-.27.66-.16.16-.37.24-.63.24s-.48-.08-.66-.24a.958.958 0 0 1-.24-.66v-13.44c0-.26.08-.47.24-.63.18-.18.4-.27.66-.27s.47.09.63.27c.18.16.27.37.27.63v1.74c.54-.82 1.27-1.5 2.19-2.04.92-.54 1.89-.81 2.91-.81 1.16 0 2.157.28 2.997.84.84.56 1.44 1.38 1.8 2.46.42-.88 1.19-1.65 2.31-2.31 1.12-.66 2.25-.99 3.39-.99Zm27.37 0c1.8 0 3.12.56 3.96 1.68.86 1.1 1.29 2.56 1.29 4.38v8.49c0 .26-.09.48-.27.66-.16.16-.37.24-.63.24s-.48-.08-.66-.24a.958.958 0 0 1-.24-.66v-8.4c0-1.32-.32-2.39-.96-3.21-.62-.84-1.59-1.26-2.91-1.26-.84 0-1.64.2-2.4.6-.74.4-1.34.95-1.8 1.65-.46.68-.69 1.42-.69 2.22v8.4c0 .26-.09.48-.27.66-.16.16-.37.24-.63.24s-.48-.08-.66-.24a.958.958 0 0 1-.24-.66v-8.49c0-1.3-.3-2.35-.9-3.15-.6-.82-1.54-1.23-2.82-1.23-.82 0-1.6.2-2.34.6-.72.4-1.31.94-1.77 1.62-.44.66-.66 1.38-.66 2.16v8.49c0 .26-.09.48-.27.66-.16.16-.37.24-.63.24s-.48-.08-.66-.24a.958.958 0 0 1-.24-.66v-13.44c0-.26.08-.47.24-.63.18-.18.4-.27.66-.27s.47.09.63.27c.18.16.27.37.27.63v1.74c.54-.82 1.27-1.5 2.19-2.04.92-.54 1.89-.81 2.91-.81 1.16 0 2.16.28 3 .84.84.56 1.44 1.38 1.8 2.46.42-.88 1.19-1.65 2.31-2.31 1.12-.66 2.25-.99 3.39-.99Zm22.92 6.9c0 .24-.09.45-.27.63-.18.16-.39.24-.63.24h-11.34c0 1.2.24 2.28.72 3.24.5.94 1.2 1.69 2.1 2.25.92.54 2 .81 3.24.81.96 0 1.82-.2 2.58-.6.76-.4 1.37-.91 1.83-1.53.22-.18.43-.27.63-.27s.38.08.54.24c.16.16.24.34.24.54 0 .22-.1.43-.3.63-.64.78-1.45 1.42-2.43 1.92-.96.5-1.98.75-3.06.75-1.54 0-2.9-.33-4.08-.99a7.044 7.044 0 0 1-2.76-2.76c-.66-1.2-.99-2.58-.99-4.14 0-1.64.32-3.07.96-4.29.66-1.24 1.53-2.18 2.61-2.82 1.08-.66 2.23-.99 3.45-.99 1.2 0 2.32.28 3.36.84 1.06.56 1.92 1.38 2.58 2.46.66 1.08 1 2.36 1.02 3.84Zm-6.96-5.4c-1.16 0-2.24.4-3.24 1.2-.98.8-1.61 1.95-1.89 3.45h10.23v-.24c-.1-.9-.4-1.68-.9-2.34-.5-.68-1.13-1.19-1.89-1.53-.74-.36-1.51-.54-2.31-.54Zm17.84-1.74c.4 0 .76.08 1.08.24.32.16.48.4.48.72 0 .28-.08.51-.24.69-.16.16-.35.24-.57.24-.1 0-.3-.05-.6-.15-.28-.1-.55-.15-.81-.15-.74 0-1.48.29-2.22.87-.72.56-1.32 1.29-1.8 2.19-.46.9-.69 1.81-.69 2.73v7.41c0 .26-.09.48-.27.66-.16.16-.37.24-.63.24s-.48-.08-.66-.24a.958.958 0 0 1-.24-.66v-13.44c0-.26.08-.47.24-.63.18-.18.4-.27.66-.27s.47.09.63.27c.18.16.27.37.27.63v2.64c.46-1.14 1.15-2.08 2.07-2.82.94-.76 2.04-1.15 3.3-1.17Zm25.03.36c.26 0 .47.09.63.27.18.18.27.4.27.66v13.5c0 .26-.09.48-.27.66-.16.16-.37.24-.63.24s-.48-.08-.66-.24a.958.958 0 0 1-.24-.66v-2.01c-.5.9-1.25 1.66-2.25 2.28-1 .62-2.09.93-3.27.93-1.34 0-2.55-.35-3.63-1.05-1.06-.7-1.9-1.66-2.52-2.88-.6-1.22-.9-2.59-.9-4.11 0-1.52.31-2.88.93-4.08.62-1.22 1.46-2.17 2.52-2.85a6.567 6.567 0 0 1 3.57-1.02c1.2 0 2.3.29 3.3.87 1 .58 1.75 1.34 2.25 2.28v-1.86c0-.26.08-.48.24-.66.18-.18.4-.27.66-.27Zm-6.24 13.95c1.04 0 1.97-.27 2.79-.81.84-.56 1.49-1.32 1.95-2.28.48-.98.72-2.07.72-3.27 0-1.16-.24-2.22-.72-3.18-.46-.96-1.11-1.71-1.95-2.25-.82-.56-1.75-.84-2.79-.84s-1.98.27-2.82.81c-.82.54-1.47 1.29-1.95 2.25-.46.94-.69 2.01-.69 3.21 0 1.2.23 2.29.69 3.27.46.96 1.1 1.72 1.92 2.28.84.54 1.79.81 2.85.81Zm19.06-14.31c1.86 0 3.22.55 4.08 1.65.88 1.08 1.32 2.52 1.32 4.32v8.82c0 .26-.09.48-.27.66-.18.16-.39.24-.63.24-.26 0-.48-.08-.66-.24a.958.958 0 0 1-.24-.66v-8.73c0-1.3-.33-2.35-.99-3.15-.64-.82-1.64-1.23-3-1.23-.86 0-1.68.2-2.46.6-.76.4-1.38.94-1.86 1.62-.48.66-.72 1.38-.72 2.16v8.73c0 .26-.09.48-.27.66-.16.16-.37.24-.63.24s-.48-.08-.66-.24a.958.958 0 0 1-.24-.66v-13.44c0-.26.08-.47.24-.63.18-.18.4-.27.66-.27s.47.09.63.27c.18.16.27.37.27.63v1.65c.54-.86 1.31-1.57 2.31-2.13 1.02-.58 2.06-.87 3.12-.87Zm22.57-6.51c.26 0 .47.09.63.27.18.16.27.37.27.63v20.4c0 .26-.09.48-.27.66-.16.16-.37.24-.63.24s-.48-.08-.66-.24a.958.958 0 0 1-.24-.66V378c-.5.92-1.25 1.7-2.25 2.34-.98.64-2.07.96-3.27.96-1.32 0-2.52-.34-3.6-1.02-1.06-.7-1.9-1.66-2.52-2.88-.62-1.22-.93-2.59-.93-4.11 0-1.5.31-2.86.93-4.08.62-1.22 1.46-2.17 2.52-2.85a6.43 6.43 0 0 1 3.57-1.05c1.18 0 2.27.3 3.27.9 1 .58 1.76 1.34 2.28 2.28v-8.79c0-.26.08-.47.24-.63.18-.18.4-.27.66-.27Zm-6.24 20.82c1.04 0 1.97-.27 2.79-.81.84-.54 1.49-1.29 1.95-2.25.48-.98.72-2.07.72-3.27 0-1.18-.24-2.25-.72-3.21-.46-.96-1.11-1.71-1.95-2.25-.82-.56-1.75-.84-2.79-.84s-1.98.28-2.82.84c-.82.54-1.47 1.29-1.95 2.25-.46.96-.69 2.03-.69 3.21 0 1.2.23 2.28.69 3.24.48.96 1.13 1.72 1.95 2.28.84.54 1.78.81 2.82.81Zm44.79-19.68c.28 0 .51.08.69.24.18.16.27.38.27.66l-.06.39-6.63 19.2c-.06.18-.17.32-.33.42-.14.1-.3.15-.48.15-.46 0-.76-.19-.9-.57l-5.19-12.81-5.19 12.81c-.18.38-.48.57-.9.57-.18 0-.35-.05-.51-.15a.676.676 0 0 1-.27-.42l-6.63-19.2a.799.799 0 0 1-.09-.36c0-.28.1-.5.3-.66.22-.18.45-.27.69-.27.2 0 .38.05.54.15.16.1.27.24.33.42l5.88 17.16 5.04-12.57c.18-.4.46-.59.84-.57.2-.02.37.03.51.15.16.1.28.24.36.42l5.01 12.57 5.82-17.16c.16-.38.46-.57.9-.57Zm16.74 12.51c0 .24-.09.45-.27.63-.18.16-.39.24-.63.24h-11.34c0 1.2.24 2.28.72 3.24.5.94 1.2 1.69 2.1 2.25.92.54 2 .81 3.24.81.96 0 1.82-.2 2.58-.6.76-.4 1.37-.91 1.83-1.53.22-.18.43-.27.63-.27s.38.08.54.24c.16.16.24.34.24.54 0 .22-.1.43-.3.63-.64.78-1.45 1.42-2.43 1.92-.96.5-1.98.75-3.06.75-1.54 0-2.9-.33-4.08-.99a7.044 7.044 0 0 1-2.76-2.76c-.66-1.2-.99-2.58-.99-4.14 0-1.64.32-3.07.96-4.29.66-1.24 1.53-2.18 2.61-2.82 1.08-.66 2.23-.99 3.45-.99 1.2 0 2.32.28 3.36.84 1.06.56 1.92 1.38 2.58 2.46.66 1.08 1 2.36 1.02 3.84Zm-6.96-5.4c-1.16 0-2.24.4-3.24 1.2-.98.8-1.61 1.95-1.89 3.45h10.23v-.24c-.1-.9-.4-1.68-.9-2.34-.5-.68-1.13-1.19-1.89-1.53-.74-.36-1.51-.54-2.31-.54Zm17.96-1.74c1.32 0 2.52.34 3.6 1.02 1.08.68 1.92 1.63 2.52 2.85.62 1.2.93 2.56.93 4.08 0 1.5-.31 2.87-.93 4.11-.6 1.22-1.44 2.18-2.52 2.88-1.06.7-2.25 1.05-3.57 1.05-1.14 0-2.2-.28-3.18-.84a7.085 7.085 0 0 1-2.34-2.28v1.98c0 .26-.09.48-.27.66-.16.18-.37.27-.63.27s-.48-.09-.66-.27a.958.958 0 0 1-.24-.66v-20.43c0-.26.08-.47.24-.63.18-.18.4-.27.66-.27s.47.09.63.27c.18.16.27.37.27.63v8.85c.54-.98 1.3-1.77 2.28-2.37.98-.6 2.05-.9 3.21-.9Zm-.15 14.31c1.04 0 1.97-.28 2.79-.84.84-.56 1.49-1.32 1.95-2.28.48-.98.72-2.06.72-3.24 0-1.2-.24-2.27-.72-3.21-.46-.96-1.11-1.71-1.95-2.25-.82-.54-1.75-.81-2.79-.81-1.06 0-2.01.27-2.85.81-.84.52-1.49 1.26-1.95 2.22-.46.96-.69 2.04-.69 3.24 0 1.2.23 2.29.69 3.27.48.96 1.13 1.72 1.95 2.28.84.54 1.79.81 2.85.81ZM1224.8 360c1.92 0 3.53.48 4.83 1.44 1.32.94 2.3 2.21 2.94 3.81.66 1.58.99 3.33.99 5.25 0 1.98-.33 3.76-.99 5.34-.64 1.58-1.62 2.84-2.94 3.78-1.3.92-2.91 1.38-4.83 1.38h-7.65c-.26 0-.48-.08-.66-.24a.958.958 0 0 1-.24-.66v-19.2c0-.26.08-.47.24-.63.18-.18.4-.27.66-.27h7.65Zm-.3 19.23c2.4 0 4.19-.8 5.37-2.4 1.18-1.62 1.77-3.73 1.77-6.33 0-1.62-.25-3.08-.75-4.38-.5-1.32-1.29-2.37-2.37-3.15-1.06-.8-2.4-1.2-4.02-1.2h-6.36v17.46h6.36Zm26.06-6.78c0 .24-.09.45-.27.63-.18.16-.39.24-.63.24h-11.34c0 1.2.24 2.28.72 3.24.5.94 1.2 1.69 2.1 2.25.92.54 2 .81 3.24.81.96 0 1.82-.2 2.58-.6.76-.4 1.37-.91 1.83-1.53.22-.18.43-.27.63-.27s.38.08.54.24c.16.16.24.34.24.54 0 .22-.1.43-.3.63-.64.78-1.45 1.42-2.43 1.92-.96.5-1.98.75-3.06.75-1.54 0-2.9-.33-4.08-.99a7.044 7.044 0 0 1-2.76-2.76c-.66-1.2-.99-2.58-.99-4.14 0-1.64.32-3.07.96-4.29.66-1.24 1.53-2.18 2.61-2.82 1.08-.66 2.23-.99 3.45-.99 1.2 0 2.32.28 3.36.84 1.06.56 1.92 1.38 2.58 2.46.66 1.08 1 2.36 1.02 3.84Zm-6.96-5.4c-1.16 0-2.24.4-3.24 1.2-.98.8-1.61 1.95-1.89 3.45h10.23v-.24c-.1-.9-.4-1.68-.9-2.34-.5-.68-1.13-1.19-1.89-1.53-.74-.36-1.51-.54-2.31-.54Zm22.1-1.68c.2 0 .39.07.57.21.18.14.27.32.27.54 0 .18-.04.35-.12.51l-5.88 13.8c-.08.16-.2.3-.36.42a.76.76 0 0 1-.45.15c-.2.02-.38-.02-.54-.12a.908.908 0 0 1-.36-.45l-5.91-13.8c0-.04-.02-.1-.06-.18a.986.986 0 0 1-.03-.24c0-.24.08-.44.24-.6.16-.18.39-.27.69-.27.18 0 .34.06.48.18.16.1.28.24.36.42l5.1 12.15 5.13-12.15c.08-.18.19-.32.33-.42.16-.12.34-.17.54-.15Zm17.11 7.08c0 .24-.09.45-.27.63-.18.16-.39.24-.63.24h-11.34c0 1.2.24 2.28.72 3.24.5.94 1.2 1.69 2.1 2.25.92.54 2 .81 3.24.81.96 0 1.82-.2 2.58-.6.76-.4 1.37-.91 1.83-1.53.22-.18.43-.27.63-.27s.38.08.54.24c.16.16.24.34.24.54 0 .22-.1.43-.3.63-.64.78-1.45 1.42-2.43 1.92-.96.5-1.98.75-3.06.75-1.54 0-2.9-.33-4.08-.99a7.044 7.044 0 0 1-2.76-2.76c-.66-1.2-.99-2.58-.99-4.14 0-1.64.32-3.07.96-4.29.66-1.24 1.53-2.18 2.61-2.82 1.08-.66 2.23-.99 3.45-.99 1.2 0 2.32.28 3.36.84 1.06.56 1.92 1.38 2.58 2.46.66 1.08 1 2.36 1.02 3.84Zm-6.96-5.4c-1.16 0-2.24.4-3.24 1.2-.98.8-1.61 1.95-1.89 3.45h10.23v-.24c-.1-.9-.4-1.68-.9-2.34-.5-.68-1.13-1.19-1.89-1.53-.74-.36-1.51-.54-2.31-.54Zm12.65 13.05c0 .26-.09.48-.27.66-.16.16-.37.24-.63.24s-.48-.08-.66-.24a.958.958 0 0 1-.24-.66v-20.4c0-.26.08-.47.24-.63.18-.18.4-.27.66-.27s.47.09.63.27c.18.16.27.37.27.63v20.4Zm18.8-6.78c0 1.5-.33 2.86-.99 4.08a7.419 7.419 0 0 1-2.73 2.88c-1.16.68-2.45 1.02-3.87 1.02s-2.71-.34-3.87-1.02a7.419 7.419 0 0 1-2.73-2.88c-.66-1.22-.99-2.58-.99-4.08s.33-2.86.99-4.08a7.419 7.419 0 0 1 2.73-2.88c1.16-.7 2.45-1.05 3.87-1.05s2.71.35 3.87 1.05c1.16.7 2.07 1.66 2.73 2.88.66 1.22.99 2.58.99 4.08Zm-1.8 0c0-1.2-.25-2.28-.75-3.24-.5-.96-1.2-1.71-2.1-2.25-.88-.56-1.86-.84-2.94-.84-1.08 0-2.06.28-2.94.84-.88.54-1.58 1.29-2.1 2.25-.5.96-.75 2.04-.75 3.24 0 1.18.25 2.25.75 3.21.52.96 1.22 1.72 2.1 2.28.88.54 1.86.81 2.94.81 1.08 0 2.06-.27 2.94-.81.9-.54 1.6-1.29 2.1-2.25s.75-2.04.75-3.24Zm12.78-7.77c1.32 0 2.52.34 3.6 1.02 1.08.66 1.92 1.59 2.52 2.79.62 1.18.93 2.51.93 3.99 0 1.5-.31 2.85-.93 4.05-.6 1.18-1.44 2.11-2.52 2.79-1.06.68-2.25 1.02-3.57 1.02-1.16 0-2.23-.27-3.21-.81-.96-.56-1.73-1.3-2.31-2.22v7.92c0 .26-.09.47-.27.63-.16.18-.37.27-.63.27s-.48-.09-.66-.27c-.16-.16-.24-.37-.24-.63v-19.56c0-.26.08-.48.24-.66.18-.18.4-.27.66-.27s.47.09.63.27c.18.18.27.4.27.66v2.04c.52-.94 1.27-1.68 2.25-2.22.98-.54 2.06-.81 3.24-.81Zm-.15 13.98c1.04 0 1.97-.26 2.79-.78.84-.54 1.49-1.28 1.95-2.22.48-.94.72-2 .72-3.18 0-1.16-.24-2.2-.72-3.12-.46-.94-1.11-1.67-1.95-2.19-.82-.54-1.75-.81-2.79-.81-1.06 0-2.01.26-2.85.78-.84.52-1.49 1.25-1.95 2.19-.46.92-.69 1.97-.69 3.15s.23 2.24.69 3.18c.46.94 1.11 1.68 1.95 2.22.84.52 1.79.78 2.85.78Zm23.86-7.08c0 .24-.09.45-.27.63-.18.16-.39.24-.63.24h-11.34c0 1.2.24 2.28.72 3.24.5.94 1.2 1.69 2.1 2.25.92.54 2 .81 3.24.81.96 0 1.82-.2 2.58-.6.76-.4 1.37-.91 1.83-1.53.22-.18.43-.27.63-.27s.38.08.54.24c.16.16.24.34.24.54 0 .22-.1.43-.3.63-.64.78-1.45 1.42-2.43 1.92-.96.5-1.98.75-3.06.75-1.54 0-2.9-.33-4.08-.99a7.044 7.044 0 0 1-2.76-2.76c-.66-1.2-.99-2.58-.99-4.14 0-1.64.32-3.07.96-4.29.66-1.24 1.53-2.18 2.61-2.82 1.08-.66 2.23-.99 3.45-.99 1.2 0 2.32.28 3.36.84 1.06.56 1.92 1.38 2.58 2.46.66 1.08 1 2.36 1.02 3.84Zm-6.96-5.4c-1.16 0-2.24.4-3.24 1.2-.98.8-1.61 1.95-1.89 3.45h10.23v-.24c-.1-.9-.4-1.68-.9-2.34-.5-.68-1.13-1.19-1.89-1.53-.74-.36-1.51-.54-2.31-.54Zm17.84-1.74c.4 0 .76.08 1.08.24.32.16.48.4.48.72 0 .28-.08.51-.24.69-.16.16-.35.24-.57.24-.1 0-.3-.05-.6-.15-.28-.1-.55-.15-.81-.15-.74 0-1.48.29-2.22.87-.72.56-1.32 1.29-1.8 2.19-.46.9-.69 1.81-.69 2.73v7.41c0 .26-.09.48-.27.66-.16.16-.37.24-.63.24s-.48-.08-.66-.24a.958.958 0 0 1-.24-.66v-13.44c0-.26.08-.47.24-.63.18-.18.4-.27.66-.27s.47.09.63.27c.18.16.27.37.27.63v2.64c.46-1.14 1.15-2.08 2.07-2.82.94-.76 2.04-1.15 3.3-1.17Zm-476.244 36c1.32 0 2.52.34 3.6 1.02 1.08.68 1.92 1.63 2.52 2.85.62 1.2.93 2.56.93 4.08 0 1.5-.31 2.87-.93 4.11-.6 1.22-1.44 2.18-2.52 2.88-1.06.7-2.25 1.05-3.57 1.05-1.14 0-2.2-.28-3.18-.84a7.085 7.085 0 0 1-2.34-2.28v1.98c0 .26-.09.48-.27.66-.16.18-.37.27-.63.27s-.48-.09-.66-.27a.958.958 0 0 1-.24-.66v-20.43c0-.26.08-.47.24-.63.18-.18.4-.27.66-.27s.47.09.63.27c.18.16.27.37.27.63v8.85c.54-.98 1.3-1.77 2.28-2.37.98-.6 2.05-.9 3.21-.9Zm-.15 14.31c1.04 0 1.97-.28 2.79-.84.84-.56 1.49-1.32 1.95-2.28.48-.98.72-2.06.72-3.24 0-1.2-.24-2.27-.72-3.21-.46-.96-1.11-1.71-1.95-2.25-.82-.54-1.75-.81-2.79-.81-1.06 0-2.01.27-2.85.81-.84.52-1.49 1.26-1.95 2.22-.46.96-.69 2.04-.69 3.24 0 1.2.23 2.29.69 3.27.48.96 1.13 1.72 1.95 2.28.84.54 1.79.81 2.85.81Zm23.357-13.95c.26 0 .47.09.63.27.18.18.27.4.27.66v13.5c0 .26-.09.48-.27.66-.16.16-.37.24-.63.24s-.48-.08-.66-.24a.958.958 0 0 1-.24-.66v-2.01c-.5.9-1.25 1.66-2.25 2.28-1 .62-2.09.93-3.27.93-1.34 0-2.55-.35-3.63-1.05-1.06-.7-1.9-1.66-2.52-2.88-.6-1.22-.9-2.59-.9-4.11 0-1.52.31-2.88.93-4.08.62-1.22 1.46-2.17 2.52-2.85a6.567 6.567 0 0 1 3.57-1.02c1.2 0 2.3.29 3.3.87 1 .58 1.75 1.34 2.25 2.28v-1.86c0-.26.08-.48.24-.66.18-.18.4-.27.66-.27Zm-6.24 13.95c1.04 0 1.97-.27 2.79-.81.84-.56 1.49-1.32 1.95-2.28.48-.98.72-2.07.72-3.27 0-1.16-.24-2.22-.72-3.18-.46-.96-1.11-1.71-1.95-2.25-.82-.56-1.75-.84-2.79-.84s-1.98.27-2.82.81c-.82.54-1.47 1.29-1.95 2.25-.46.94-.69 2.01-.69 3.21 0 1.2.23 2.29.69 3.27.46.96 1.1 1.72 1.92 2.28.84.54 1.79.81 2.85.81Zm10.967-1.05c-.16-.26-.24-.48-.24-.66 0-.26.13-.46.39-.6.12-.12.28-.18.48-.18.24 0 .46.1.66.3 1.18 1.56 2.75 2.34 4.71 2.34.96 0 1.79-.22 2.49-.66.72-.46 1.08-1.12 1.08-1.98 0-.84-.33-1.47-.99-1.89-.66-.42-1.58-.78-2.76-1.08-1.66-.42-2.96-.96-3.9-1.62-.94-.68-1.41-1.67-1.41-2.97 0-.82.23-1.55.69-2.19.46-.66 1.08-1.17 1.86-1.53.8-.36 1.7-.54 2.7-.54.86 0 1.72.17 2.58.51.88.32 1.63.84 2.25 1.56.18.14.27.34.27.6 0 .24-.1.45-.3.63a.8.8 0 0 1-.54.18c-.2 0-.38-.08-.54-.24-.48-.54-1.05-.95-1.71-1.23-.66-.28-1.37-.42-2.13-.42-.94 0-1.75.22-2.43.66-.66.44-.99 1.1-.99 1.98.04.8.4 1.41 1.08 1.83.7.42 1.72.8 3.06 1.14 1.04.26 1.9.55 2.58.87.68.32 1.23.77 1.65 1.35.44.58.66 1.35.66 2.31 0 1.3-.52 2.34-1.56 3.12-1.04.76-2.33 1.14-3.87 1.14-2.44 0-4.38-.91-5.82-2.73Zm27.892-6.12c0 .24-.09.45-.27.63-.18.16-.39.24-.63.24h-11.34c0 1.2.24 2.28.72 3.24.5.94 1.2 1.69 2.1 2.25.92.54 2 .81 3.24.81.96 0 1.82-.2 2.58-.6.76-.4 1.37-.91 1.83-1.53.22-.18.43-.27.63-.27s.38.08.54.24c.16.16.24.34.24.54 0 .22-.1.43-.3.63-.64.78-1.45 1.42-2.43 1.92-.96.5-1.98.75-3.06.75-1.54 0-2.9-.33-4.08-.99a7.044 7.044 0 0 1-2.76-2.76c-.66-1.2-.99-2.58-.99-4.14 0-1.64.32-3.07.96-4.29.66-1.24 1.53-2.18 2.61-2.82 1.08-.66 2.23-.99 3.45-.99 1.2 0 2.32.28 3.36.84 1.06.56 1.92 1.38 2.58 2.46.66 1.08 1 2.36 1.02 3.84Zm-6.96-5.4c-1.16 0-2.24.4-3.24 1.2-.98.8-1.61 1.95-1.89 3.45h10.23v-.24c-.1-.9-.4-1.68-.9-2.34-.5-.68-1.13-1.19-1.89-1.53-.74-.36-1.51-.54-2.31-.54Zm23.12-8.25c.26 0 .47.09.63.27.18.16.27.37.27.63v20.4c0 .26-.09.48-.27.66-.16.16-.37.24-.63.24s-.48-.08-.66-.24a.958.958 0 0 1-.24-.66V414c-.5.92-1.25 1.7-2.25 2.34-.98.64-2.07.96-3.27.96-1.32 0-2.52-.34-3.6-1.02-1.06-.7-1.9-1.66-2.52-2.88-.62-1.22-.93-2.59-.93-4.11 0-1.5.31-2.86.93-4.08.62-1.22 1.46-2.17 2.52-2.85a6.43 6.43 0 0 1 3.57-1.05c1.18 0 2.27.3 3.27.9 1 .58 1.76 1.34 2.28 2.28v-8.79c0-.26.08-.47.24-.63.18-.18.4-.27.66-.27Zm-6.24 20.82c1.04 0 1.97-.27 2.79-.81.84-.54 1.49-1.29 1.95-2.25.48-.98.72-2.07.72-3.27 0-1.18-.24-2.25-.72-3.21-.46-.96-1.11-1.71-1.95-2.25-.82-.56-1.75-.84-2.79-.84s-1.98.28-2.82.84c-.82.54-1.47 1.29-1.95 2.25-.46.96-.69 2.03-.69 3.21 0 1.2.23 2.28.69 3.24.48.96 1.13 1.72 1.95 2.28.84.54 1.78.81 2.82.81Zm22.38.45c-.02.26-.12.48-.3.66-.18.18-.4.27-.66.27-.28 0-.51-.08-.69-.24-.16-.18-.24-.41-.24-.69v-19.14c0-.28.09-.5.27-.66.18-.18.41-.27.69-.27.26 0 .48.09.66.27.18.18.27.4.27.66v19.14Zm12.39-14.76c1.86 0 3.22.55 4.08 1.65.88 1.08 1.32 2.52 1.32 4.32v8.82c0 .26-.09.48-.27.66-.18.16-.39.24-.63.24-.26 0-.48-.08-.66-.24a.958.958 0 0 1-.24-.66v-8.73c0-1.3-.33-2.35-.99-3.15-.64-.82-1.64-1.23-3-1.23-.86 0-1.68.2-2.46.6-.76.4-1.38.94-1.86 1.62-.48.66-.72 1.38-.72 2.16v8.73c0 .26-.09.48-.27.66-.16.16-.37.24-.63.24s-.48-.08-.66-.24a.958.958 0 0 1-.24-.66v-13.44c0-.26.08-.47.24-.63.18-.18.4-.27.66-.27s.47.09.63.27c.18.16.27.37.27.63v1.65c.54-.86 1.31-1.57 2.31-2.13 1.02-.58 2.06-.87 3.12-.87Zm20.057 14.79c0 .26-.09.48-.27.66-.16.16-.37.24-.63.24s-.48-.08-.66-.24a.958.958 0 0 1-.24-.66v-13.8c0-.26.08-.47.24-.63.18-.18.4-.27.66-.27s.47.09.63.27c.18.16.27.37.27.63v13.8Zm-.9-16.71c-.4 0-.71-.09-.93-.27-.22-.2-.33-.48-.33-.84v-.3c0-.36.11-.63.33-.81.24-.2.56-.3.96-.3.8 0 1.2.37 1.2 1.11v.3c0 .36-.11.64-.33.84-.2.18-.5.27-.9.27Zm12.751 1.92c.4 0 .76.08 1.08.24.32.16.48.4.48.72 0 .28-.08.51-.24.69-.16.16-.35.24-.57.24-.1 0-.3-.05-.6-.15-.28-.1-.55-.15-.81-.15-.74 0-1.48.29-2.22.87-.72.56-1.32 1.29-1.8 2.19-.46.9-.69 1.81-.69 2.73v7.41c0 .26-.09.48-.27.66-.16.16-.37.24-.63.24s-.48-.08-.66-.24a.958.958 0 0 1-.24-.66v-13.44c0-.26.08-.47.24-.63.18-.18.4-.27.66-.27s.47.09.63.27c.18.16.27.37.27.63v2.64c.46-1.14 1.15-2.08 2.07-2.82.94-.76 2.04-1.15 3.3-1.17Zm16.47.36c.26 0 .47.09.63.27.18.18.27.4.27.66v13.5c0 .26-.09.48-.27.66-.16.16-.37.24-.63.24s-.48-.08-.66-.24a.958.958 0 0 1-.24-.66v-2.01c-.5.9-1.25 1.66-2.25 2.28-1 .62-2.09.93-3.27.93-1.34 0-2.55-.35-3.63-1.05-1.06-.7-1.9-1.66-2.52-2.88-.6-1.22-.9-2.59-.9-4.11 0-1.52.31-2.88.93-4.08.62-1.22 1.46-2.17 2.52-2.85a6.567 6.567 0 0 1 3.57-1.02c1.2 0 2.3.29 3.3.87 1 .58 1.75 1.34 2.25 2.28v-1.86c0-.26.08-.48.24-.66.18-.18.4-.27.66-.27Zm-6.24 13.95c1.04 0 1.97-.27 2.79-.81.84-.56 1.49-1.32 1.95-2.28.48-.98.72-2.07.72-3.27 0-1.16-.24-2.22-.72-3.18-.46-.96-1.11-1.71-1.95-2.25-.82-.56-1.75-.84-2.79-.84s-1.98.27-2.82.81c-.82.54-1.47 1.29-1.95 2.25-.46.94-.69 2.01-.69 3.21 0 1.2.23 2.29.69 3.27.46.96 1.1 1.72 1.92 2.28.84.54 1.79.81 2.85.81Zm19.06-14.31c1.86 0 3.22.55 4.08 1.65.88 1.08 1.32 2.52 1.32 4.32v8.82c0 .26-.09.48-.27.66-.18.16-.39.24-.63.24-.26 0-.48-.08-.66-.24a.958.958 0 0 1-.24-.66v-8.73c0-1.3-.33-2.35-.99-3.15-.64-.82-1.64-1.23-3-1.23-.86 0-1.68.2-2.46.6-.76.4-1.38.94-1.86 1.62-.48.66-.72 1.38-.72 2.16v8.73c0 .26-.09.48-.27.66-.16.16-.37.24-.63.24s-.48-.08-.66-.24a.958.958 0 0 1-.24-.66v-13.44c0-.26.08-.47.24-.63.18-.18.4-.27.66-.27s.47.09.63.27c.18.16.27.37.27.63v1.65c.54-.86 1.31-1.57 2.31-2.13 1.02-.58 2.06-.87 3.12-.87Z"/>
  </g>
  <defs>
    <clipPath id="a">
      <rect width="1560" height="704" fill="#fff" rx="10"/>
    </clipPath>
  </defs>
</svg>
