<svg xmlns="http://www.w3.org/2000/svg" fill="none" viewBox="0 0 194 32">
  <path fill="#fff" fill-rule="evenodd" d="M50.416 8.03h5.223c4.384 0 7.567 3.123 7.567 7.44 0 4.319-3.183 7.452-7.568 7.452h-5.222V8.031Zm5.151 12.827c1.513 0 2.88-.541 3.85-1.524.962-.978 1.497-2.345 1.497-3.862 0-1.518-.528-2.882-1.497-3.86-.969-.976-2.336-1.514-3.85-1.514h-2.911v10.76h2.911Zm9.158-3.65c0-3.416 2.53-6 5.886-6 1.666 0 3.17.624 4.238 1.763 1.018 1.085 1.588 2.575 1.605 4.19v.072c0 .245-.02.48-.037.663h-9.533l.022.146c.311 1.953 1.731 3.164 3.708 3.164 1.387 0 2.56-.624 3.22-1.711h2.277c-.95 2.327-3.002 3.713-5.5 3.713-3.355 0-5.886-2.584-5.886-6Zm2.24-1.163-.035.155 7.396-.002-.038-.156c-.433-1.78-1.76-2.868-3.551-2.917h-.126c-.916 0-1.74.278-2.372.79-.632.51-1.073 1.247-1.273 2.13Z" clip-rule="evenodd"/>
  <path fill="#fff" d="M83.924 21.166a3.726 3.726 0 0 1-2.716-1.146 4.041 4.041 0 0 1-1.096-2.82c0-2.253 1.638-3.955 3.81-3.955 1.546 0 2.855.807 3.506 2.156h2.146c-.689-2.552-2.897-4.198-5.64-4.198-3.429 0-6.013 2.575-6.013 5.988 0 1.654.61 3.177 1.722 4.289 1.111 1.111 2.607 1.713 4.243 1.723h.042c1.387 0 2.66-.422 3.683-1.219a5.671 5.671 0 0 0 1.992-3.067H87.42c-.676 1.431-1.947 2.249-3.496 2.249Z"/>
  <path fill="#fff" fill-rule="evenodd" d="M92.655 12.91c1.125-1.098 2.685-1.703 4.384-1.703 1.696 0 3.251.606 4.38 1.708 1.129 1.103 1.751 2.629 1.751 4.292 0 1.663-.619 3.186-1.751 4.29-1.115 1.089-2.65 1.696-4.322 1.71h-.058c-1.7 0-3.256-.607-4.384-1.71-1.127-1.104-1.748-2.619-1.748-4.29 0-1.671.624-3.2 1.748-4.297Zm4.384 8.256c1.105 0 2.109-.396 2.825-1.115.715-.72 1.113-1.73 1.113-2.844 0-1.114-.398-2.126-1.113-2.844-.716-.718-1.719-1.115-2.825-1.115-1.107 0-2.11.395-2.825 1.115-.716.72-1.11 1.73-1.11 2.844 0 1.114.394 2.125 1.11 2.844.716.72 1.72 1.115 2.825 1.115Z" clip-rule="evenodd"/>
  <path fill="#fff" d="M117.606 11.226a4.498 4.498 0 0 0-3.715 1.99l-.118.175-.099-.187c-.661-1.258-1.9-1.979-3.396-1.979a4.592 4.592 0 0 0-3.538 1.729l-.155.192-.454-1.655h-1.482v11.431h2.151V16.66c0-.984.292-1.881.823-2.529a2.636 2.636 0 0 1 2.06-1.003c1.529 0 2.406 1.123 2.406 3.081v6.713h2.097V16.66c0-.984.291-1.881.819-2.529a2.615 2.615 0 0 1 2.052-1.003c1.527 0 2.403 1.123 2.403 3.081v6.713h2.153V15.62c0-1.254-.393-2.379-1.109-3.167-.727-.802-1.73-1.226-2.898-1.226Zm16.744.534a4.5 4.5 0 0 1 2.106-.534c1.169 0 2.171.424 2.901 1.226.715.788 1.109 1.913 1.109 3.167v7.303h-2.153V16.21c0-1.958-.876-3.081-2.404-3.081-.794 0-1.523.356-2.051 1.003-.528.648-.819 1.545-.819 2.53v6.261h-2.098V16.21c0-1.958-.876-3.081-2.406-3.081a2.639 2.639 0 0 0-2.06 1.003c-.53.648-.823 1.545-.823 2.53v6.261h-2.153v-11.43h1.483l.453 1.655.155-.193a4.584 4.584 0 0 1 3.538-1.728c1.495 0 2.734.72 3.397 1.979l.098.186.118-.174a4.48 4.48 0 0 1 1.609-1.458Z"/>
  <path fill="#fff" fill-rule="evenodd" d="M147.908 11.207c-3.355 0-5.886 2.584-5.886 6s2.531 6 5.886 6a5.898 5.898 0 0 0 3.397-1.034 6.009 6.009 0 0 0 2.1-2.673h-2.276c-.661 1.088-1.834 1.711-3.221 1.711-1.976 0-3.396-1.21-3.707-3.164l-.023-.146h9.534c.017-.172.037-.416.037-.663v-.079c-.017-1.614-.587-3.103-1.606-4.189-1.065-1.139-2.569-1.763-4.235-1.763Zm-3.68 4.992.035-.155c.201-.883.642-1.62 1.274-2.13.632-.512 1.456-.79 2.371-.79h.126c1.793.05 3.119 1.136 3.551 2.917l.038.156-7.395.002Z" clip-rule="evenodd"/>
  <path fill="#fff" d="m157.153 13.246.162-.21c.829-1.097 1.936-1.608 3.484-1.608h.913v2.015h-1.147c-2.034 0-3.11 1.168-3.11 3.376v6.103h-2.153v-11.43h1.403l.448 1.754Zm10.948 7.92a3.723 3.723 0 0 1-2.715-1.146 4.038 4.038 0 0 1-1.096-2.82c0-2.253 1.638-3.955 3.811-3.955 1.545 0 2.853.807 3.505 2.156h2.142c-.689-2.552-2.897-4.198-5.64-4.198-3.429 0-6.015 2.575-6.015 5.988 0 1.654.612 3.177 1.723 4.289 1.11 1.111 2.608 1.713 4.244 1.723h.041c1.386 0 2.66-.422 3.683-1.219a5.674 5.674 0 0 0 1.993-3.067h-2.184c-.672 1.431-1.943 2.249-3.492 2.249Z"/>
  <path fill="#fff" fill-rule="evenodd" d="M181.3 11.207c1.665 0 3.169.626 4.234 1.763 1.018 1.085 1.588 2.575 1.609 4.19v.078c0 .247-.02.49-.037.663h-9.54l.024.146c.311 1.953 1.73 3.164 3.707 3.164 1.387 0 2.56-.623 3.221-1.71h2.278a6.003 6.003 0 0 1-2.1 2.672 5.892 5.892 0 0 1-3.396 1.034c-3.357 0-5.887-2.584-5.887-6s2.53-6 5.887-6Zm-3.646 4.837-.035.155 7.396-.002-.038-.156c-.434-1.78-1.759-2.868-3.551-2.917h-.126c-.913 0-1.74.278-2.372.79-.633.51-1.074 1.247-1.274 2.13Z" clip-rule="evenodd"/>
  <path fill="#fff" d="M191.586 9.245a2.42 2.42 0 0 0-2.426 2.422 2.43 2.43 0 0 0 2.426 2.435A2.412 2.412 0 0 0 194 11.667a2.409 2.409 0 0 0-2.414-2.422Zm0 4.398a1.966 1.966 0 0 1-1.969-1.976c0-1.084.864-1.95 1.969-1.95a1.95 1.95 0 0 1 1.957 1.95 1.956 1.956 0 0 1-1.957 1.976Zm1.016-2.422c0-.485-.343-.829-.825-.829h-1.016v2.511h.457v-.905h.432l.533.905h.483l-.559-.956a.752.752 0 0 0 .495-.726Zm-1.384-.395h.521c.254 0 .419.153.419.382 0 .217-.165.37-.419.37h-.521v-.752Z"/>
  <path fill="#7478C0" d="M36.3 14.57a.59.59 0 0 0-.295-.513l-5.885-3.426h-.005L18.657 4.193a.596.596 0 0 0-.587 0l-6.328 3.63a.594.594 0 0 0 .01 1.031l3.932 2.17-4.94 2.84-3.996 2.294a.593.593 0 0 0 0 1.028l2.264 1.288-5.338 3.058a.593.593 0 0 0-.009 1.021l7.135 4.268a.594.594 0 0 0 .599.007l2.618-1.489 7.552 4.658a.587.587 0 0 0 .609.012l5.727-3.305a.594.594 0 0 0 .296-.52c0-.02 0-.04-.004-.06l7.557-4.367a.592.592 0 0 0-.009-1.03l-4.883-2.705 5.14-2.94a.591.591 0 0 0 .297-.513Zm-19.118-4.075-3.933-2.169L18.37 5.39l10.248 5.76L17.5 17.517l-5.279-3.135 4.97-2.856a.594.594 0 0 0-.008-1.031h-.001Zm-6.067 15.132-5.973-3.571 5.36-3.074a.593.593 0 0 0 0-1.027L8.24 16.669l2.802-1.61 5.161 3.065-4.39 2.7a.594.594 0 0 0-.2.805.592.592 0 0 0 .217.213l2.85 1.62-2.927 1.8-.638.365Zm10.778 3.177-6.808-4.195 1.072-.663a.594.594 0 0 0 .2-.806.592.592 0 0 0-.217-.212l-2.85-1.62 4.067-2.503 4.883 2.736-1.227.698a.592.592 0 0 0-.216.819.59.59 0 0 0 .225.215l5.372 2.932-4.501 2.599Zm7.466-11.287a.593.593 0 0 0 .008 1.032l4.886 2.706-6.72 3.88a.596.596 0 0 0-.219.223l-4.79-2.613 1.215-.692a.594.594 0 0 0 0-1.03L18.7 18.196l11.121-6.369 4.703 2.736-5.165 2.954Z"/>
  <path fill="#C8C9F3" d="M17.495 8.25a1.196 1.196 0 0 1-.595.992l-3.502 2.023a1.194 1.194 0 0 1-1.193 0L8.703 9.242a1.14 1.14 0 0 1 0-1.986l1.84-1.062 1.662.96a1.188 1.188 0 0 0 1.193 0l1.663-.96 1.84 1.062a1.192 1.192 0 0 1 .594.993ZM9.383 22.374a1.191 1.191 0 0 1-.595.997l-3.502 2.023a1.192 1.192 0 0 1-1.192 0L.588 23.37a1.141 1.141 0 0 1 0-1.99l1.839-1.062 1.667.96a1.192 1.192 0 0 0 1.192 0l1.666-.959 1.837 1.06a1.194 1.194 0 0 1 .596.994h-.002Zm26.57-10.609a1.193 1.193 0 0 1-.595.993l-3.502 2.023a1.192 1.192 0 0 1-1.192 0l-3.502-2.023a1.186 1.186 0 0 1-.427-.42 1.143 1.143 0 0 1 .427-1.566L29 9.71l1.663.96a1.193 1.193 0 0 0 1.192 0l1.664-.96 1.838 1.061a1.202 1.202 0 0 1 .595.99v.004Zm-12.451 7.032a1.196 1.196 0 0 1-.596.99l-3.502 2.025a1.185 1.185 0 0 1-1.192 0L14.71 19.79a1.197 1.197 0 0 1-.426-.42 1.141 1.141 0 0 1 .426-1.566l1.835-1.063 1.663.96a1.186 1.186 0 0 0 1.192 0l1.664-.959 1.845 1.062a1.19 1.19 0 0 1 .595.993h-.003Zm10.386 8.08a1.196 1.196 0 0 1-.596.993l-3.502 2.022a1.192 1.192 0 0 1-1.192 0l-3.501-2.022a1.14 1.14 0 0 1 0-1.986l1.838-1.062 1.663.96a1.186 1.186 0 0 0 1.192 0l1.665-.96 1.838 1.062a1.19 1.19 0 0 1 .596.993h-.001Z"/>
  <path fill="#7478C0" d="m15.056 10.332-1.662.96a1.188 1.188 0 0 1-1.193 0l-1.662-.96 1.662-.96a1.188 1.188 0 0 1 1.193 0l1.662.96ZM6.952 24.457l-1.665.96a1.192 1.192 0 0 1-1.192 0l-1.663-.96 1.663-.96a1.186 1.186 0 0 1 1.192 0l1.665.96Zm26.568-10.61-1.663.961a1.193 1.193 0 0 1-1.192 0l-1.663-.96 1.663-.96a1.186 1.186 0 0 1 1.192 0l1.663.96ZM21.068 20.88l-1.663.96a1.186 1.186 0 0 1-1.192 0l-1.663-.96 1.663-.961a1.192 1.192 0 0 1 1.192 0l1.663.96Zm10.388 8.08-1.663.96a1.186 1.186 0 0 1-1.192 0l-1.663-.96 1.663-.961a1.187 1.187 0 0 1 1.192 0l1.663.96Z" opacity=".5"/>
  <path fill="#7478C0" d="M17.495 6.171a1.196 1.196 0 0 1-.595.993l-3.502 2.022a1.194 1.194 0 0 1-1.193 0L8.703 7.164a1.14 1.14 0 0 1 0-1.986l1.84-1.062 1.662.96a1.188 1.188 0 0 0 1.193 0l1.663-.96 1.84 1.062a1.192 1.192 0 0 1 .594.993ZM9.383 20.295a1.191 1.191 0 0 1-.595.997l-3.502 2.023a1.192 1.192 0 0 1-1.192 0L.588 21.292a1.141 1.141 0 0 1 0-1.99l1.839-1.061 1.667.96a1.192 1.192 0 0 0 1.192 0l1.666-.96 1.837 1.061a1.194 1.194 0 0 1 .596.993h-.002Zm26.57-10.609a1.194 1.194 0 0 1-.595.993l-3.502 2.023a1.192 1.192 0 0 1-1.192 0l-3.502-2.023a1.142 1.142 0 0 1 0-1.986L29 7.632l1.663.96a1.192 1.192 0 0 0 1.192 0l1.664-.96 1.838 1.061a1.202 1.202 0 0 1 .595.99v.003Zm-12.451 7.033a1.197 1.197 0 0 1-.596.99l-3.502 2.025a1.186 1.186 0 0 1-1.192 0l-3.502-2.022a1.14 1.14 0 0 1 0-1.986l1.835-1.063 1.663.96a1.186 1.186 0 0 0 1.192 0l1.664-.959 1.845 1.062a1.192 1.192 0 0 1 .595.993h-.003Zm10.386 8.08a1.196 1.196 0 0 1-.596.993l-3.502 2.022a1.192 1.192 0 0 1-1.192 0l-3.501-2.022a1.14 1.14 0 0 1 0-1.986l1.838-1.063 1.663.96a1.186 1.186 0 0 0 1.192 0l1.665-.959 1.838 1.062a1.19 1.19 0 0 1 .596.993h-.001Z" opacity=".5"/>
  <path fill="#00057D" d="m15.056 8.193-1.662.96a1.188 1.188 0 0 1-1.193 0l-1.662-.96 1.662-.96a1.188 1.188 0 0 1 1.193 0l1.662.96ZM6.952 22.318l-1.665.96a1.192 1.192 0 0 1-1.192 0l-1.663-.96 1.663-.96a1.186 1.186 0 0 1 1.192 0l1.665.96Zm26.568-10.61-1.663.961a1.192 1.192 0 0 1-1.192 0l-1.663-.96 1.663-.96a1.185 1.185 0 0 1 1.192 0l1.663.96ZM21.068 18.74l-1.663.96a1.186 1.186 0 0 1-1.192 0l-1.663-.96 1.663-.96a1.192 1.192 0 0 1 1.192 0l1.663.96Zm10.388 8.08-1.663.96a1.185 1.185 0 0 1-1.192 0l-1.663-.96 1.663-.96a1.187 1.187 0 0 1 1.192 0l1.663.96Z" opacity=".2"/>
  <path fill="#EB345C" d="M17.494 4.132a1.188 1.188 0 0 1-.594 1l-1.839 1.063-1.662-.961a1.188 1.188 0 0 0-1.193 0l-1.662.96L8.7 5.133a1.14 1.14 0 0 1 0-2.001l3.5-2.024a1.194 1.194 0 0 1 1.193 0l3.502 2.021a1.196 1.196 0 0 1 .598 1.003Z"/>
  <path fill="#D9339C" d="M9.383 18.257a1.189 1.189 0 0 1-.595 1L6.952 20.32l-1.663-.96a1.186 1.186 0 0 0-1.192 0l-1.665.96-1.839-1.063a1.14 1.14 0 0 1 0-2.002l3.502-2.022a1.186 1.186 0 0 1 1.192 0l3.502 2.022a1.188 1.188 0 0 1 .594 1.002Z"/>
  <path fill="#7D23F5" d="M35.953 7.648a1.192 1.192 0 0 1-.595 1L33.52 9.71l-1.664-.96a1.186 1.186 0 0 0-1.192 0l-1.663.96-1.838-1.062a1.14 1.14 0 0 1 0-2.002l3.502-2.022a1.186 1.186 0 0 1 1.192 0l3.501 2.021a1.188 1.188 0 0 1 .595 1.002v.001Z"/>
  <path fill="#C116F0" d="M23.501 14.679a1.192 1.192 0 0 1-.592 1l-1.838 1.063-1.663-.96a1.192 1.192 0 0 0-1.192 0l-1.663.96-1.839-1.063a1.14 1.14 0 0 1 0-2l3.502-2.024a1.194 1.194 0 0 1 1.192 0l3.5 2.022a1.186 1.186 0 0 1 .593 1.002Z"/>
  <path fill="#37DBF3" d="M33.888 22.76a1.192 1.192 0 0 1-.595 1l-1.837 1.062-1.663-.96a1.185 1.185 0 0 0-1.192 0l-1.663.96-1.84-1.062a1.14 1.14 0 0 1 0-2.001l3.502-2.024a1.192 1.192 0 0 1 1.192 0l3.502 2.02a1.193 1.193 0 0 1 .594 1v.004Z"/>
  <path fill="#CA3455" d="m15.056 6.195-1.662.96a1.188 1.188 0 0 1-1.193 0l-1.662-.96 1.662-.961a1.188 1.188 0 0 1 1.193 0l1.662.96Z"/>
  <path fill="#B53385" d="m6.952 20.32-1.665.96a1.192 1.192 0 0 1-1.192 0l-1.663-.96 1.663-.96a1.186 1.186 0 0 1 1.192 0l1.665.96Z"/>
  <path fill="#6723C0" d="m33.52 9.71-1.663.96a1.192 1.192 0 0 1-1.192 0l-1.663-.96 1.663-.96a1.186 1.186 0 0 1 1.192 0l1.663.96Z"/>
  <path fill="#A020C4" d="m21.068 16.742-1.663.96a1.186 1.186 0 0 1-1.192 0l-1.663-.96 1.663-.96a1.193 1.193 0 0 1 1.192 0l1.663.96Z"/>
  <path fill="#2CB4C8" d="m31.456 24.822-1.663.96a1.185 1.185 0 0 1-1.192 0l-1.663-.96 1.663-.96a1.187 1.187 0 0 1 1.192 0l1.663.96Z"/>
</svg>
