<svg xmlns="http://www.w3.org/2000/svg" fill="none" viewBox="0 0 180 180">
  <g clip-path="url(#a)">
    <g filter="url(#b)">
      <path fill="#D9339C" d="M152.485 60.767A69.997 69.997 0 0 0 67.334 21.12 70 70 0 1 0 158 87.998a69.57 69.57 0 0 0-5.515-27.231ZM88.08 155.764a67.769 67.769 0 0 1-66.508-80.962 67.766 67.766 0 0 1 134.234 13.196 67.845 67.845 0 0 1-67.766 67.766h.04Z"/>
    </g>
    <g filter="url(#c)">
      <path fill="#D9339C" d="M152.485 60.767A69.997 69.997 0 0 0 67.334 21.12 70 70 0 1 0 158 87.998a69.57 69.57 0 0 0-5.515-27.231ZM88.08 155.764a67.769 67.769 0 0 1-66.508-80.962 67.766 67.766 0 0 1 134.234 13.196 67.845 67.845 0 0 1-67.766 67.766h.04Z"/>
    </g>
    <path fill="#000AFF" d="M149.523 59.856A70.002 70.002 0 0 0 24.836 51.22 70 70 0 1 0 155 87a69.423 69.423 0 0 0-5.477-27.145Zm-64.202 94.697a67.55 67.55 0 0 1-47.82-115.304A67.553 67.553 0 0 1 152.832 87a67.649 67.649 0 0 1-67.552 67.552h.04Z" opacity=".3"/>
    <path fill="#000AFF" d="M107.626 111.73a1 1 0 0 0 .498 1.937l-.498-1.937Zm-43.75 1.937a1 1 0 1 0 .498-1.937l-.498 1.937Zm26.626-33.743-.515-.858.515.858Zm17.887-9.567a.999.999 0 1 0-1.028-1.715l1.028 1.716Zm-43.75-1.715a1 1 0 0 0-1.028 1.716l1.029-1.716ZM81.5 79.924l-.515.857.514-.857Zm.612 29.634-.15-.989.15.989Zm1.02-.773.904.428-.904-.428Zm-5.47 3.743.713-.701-.713.701Zm.75-2.409.15.988-.15-.988Zm2.316 6.382.987.162-.987-.162Zm-.39-1.25-.712.701.713-.701Zm1.723 6.584-.48-.877.48.877Zm-1.965-1.49-.986-.162.986.162Zm6.535-.325-.48.876.48-.876Zm-1.26 0 .48.876-.48-.876Zm6.535.325-.987.162.987-.162Zm-1.965 1.49.48-.877-.48.877Zm1.722-6.584-.713-.701.713.701Zm-.39 1.25.987-.162-.986.162Zm2.317-6.382-.15.988.15-.988Zm.75 2.409.713.702-.713-.702Zm-5.47-3.743.904-.428-.904.428Zm1.02.773.15-.989-.15.989Zm-2.674-4.27-.904.427.903-.427Zm-2.43 0-.903-.428.903.428ZM68.5 53h35v-2h-35v2ZM120 69.5v26.25h2V69.5h-2ZM52 95.75V69.5h-2v26.25h2ZM103.5 53c9.113 0 16.5 7.387 16.5 16.5h2c0-10.217-8.283-18.5-18.5-18.5v2Zm-35-2C58.283 51 50 59.283 50 69.5h2C52 60.387 59.387 53 68.5 53v-2ZM120 95.75c0 7.687-5.257 14.149-12.374 15.98l.498 1.937C116.103 111.613 122 104.372 122 95.75h-2Zm-55.626 15.98C57.258 109.899 52 103.437 52 95.75h-2c0 8.622 5.897 15.863 13.876 17.917l.498-1.937Zm26.642-30.949 17.373-10.424-1.028-1.715-17.374 10.424 1.03 1.715ZM63.61 70.357l17.374 10.424 1.029-1.715-17.374-10.424-1.028 1.716Zm26.377 8.71a7.75 7.75 0 0 1-7.974 0l-1.03 1.714a9.75 9.75 0 0 0 10.033 0l-1.029-1.715Zm-3.676 26.648 1.654 3.498 1.808-.856-1.655-3.497-1.807.855Zm3.428 4.831 3.7.561.3-1.977-3.7-.561-.3 1.977Zm3.887 1.281-2.677 2.723 1.426 1.402 2.677-2.722-1.426-1.403Zm-3.34 4.836.632 3.844 1.973-.324-.632-3.844-1.973.324Zm.134 4.295-3.309-1.815-.962 1.753 3.31 1.815.961-1.753Zm-5.531-1.815-3.31 1.815.962 1.753 3.31-1.815-.962-1.753Zm-3.807 1.364.632-3.844-1.973-.324-.632 3.844 1.973.324Zm-.031-5.957-2.677-2.723-1.426 1.403 2.677 2.722 1.426-1.402Zm-2.49-3.443 3.7-.561-.3-1.977-3.7.561.3 1.977Zm5.474-1.894 1.654-3.498-1.807-.855-1.655 3.497 1.808.856Zm-1.774 1.333a2.359 2.359 0 0 0 1.774-1.333l-1.808-.856a.36.36 0 0 1-.266.212l.3 1.977Zm-3.887 1.281a.438.438 0 0 1-.102-.449c.052-.165.162-.251.289-.271l-.3-1.977c-1.974.299-2.649 2.742-1.313 4.1l1.426-1.403Zm3.34 4.836a2.45 2.45 0 0 0-.663-2.113l-1.426 1.402a.45.45 0 0 1 .116.387l1.973.324Zm-.134 4.295a.295.295 0 0 1-.342-.028.425.425 0 0 1-.156-.423l-1.973-.324c-.31 1.879 1.622 3.521 3.432 2.528l-.961-1.753Zm5.531-1.815a2.303 2.303 0 0 0-2.222 0l.962 1.753a.306.306 0 0 1 .298 0l.962-1.753Zm3.807 1.364a.425.425 0 0 1-.156.423.295.295 0 0 1-.342.028l-.961 1.753c1.81.993 3.741-.649 3.432-2.528l-1.973.324Zm.031-5.957a2.45 2.45 0 0 0-.663 2.113l1.973-.324a.45.45 0 0 1 .116-.387l-1.426-1.402Zm2.49-3.443c.127.02.237.106.289.271a.438.438 0 0 1-.102.449l1.426 1.403c1.336-1.358.661-3.801-1.313-4.1l-.3 1.977Zm-5.474-1.894c.334.705.99 1.215 1.774 1.333l.3-1.977a.36.36 0 0 1-.266-.212l-1.808.856Zm.153-4.353a2.33 2.33 0 0 0-4.236 0l1.807.855c.077-.161.198-.215.311-.215.113 0 .234.054.31.215l1.808-.855Z"/>
    <g filter="url(#d)">
      <path fill="#D9339C" d="M109.626 112.73a1 1 0 0 0 .498 1.937l-.498-1.937Zm-43.75 1.937a1 1 0 1 0 .498-1.937l-.498 1.937Zm26.626-33.743-.515-.858.515.858Zm17.887-9.567a.999.999 0 1 0-1.028-1.715l1.028 1.716Zm-43.75-1.715a1 1 0 0 0-1.028 1.716l1.028-1.716ZM83.5 80.924l-.515.857.514-.857Zm.612 29.634-.15-.989.15.989Zm1.02-.773.904.428-.904-.428Zm-5.47 3.743.713-.701-.713.701Zm.75-2.409.15.988-.15-.988Zm2.316 6.382.987.162-.987-.162Zm-.39-1.25-.712.701.713-.701Zm1.723 6.584-.48-.877.48.877Zm-1.965-1.49-.986-.162.986.162Zm6.535-.325-.48.876.48-.876Zm-1.26 0 .48.876-.48-.876Zm6.535.325-.987.162.987-.162Zm-1.965 1.49.48-.877-.48.877Zm1.722-6.584-.713-.701.713.701Zm-.39 1.25.987-.162-.986.162Zm2.317-6.382-.15.988.15-.988Zm.75 2.409.713.702-.713-.702Zm-5.47-3.743.904-.428-.904.428Zm1.02.773.15-.989-.15.989Zm-2.674-4.27-.904.427.903-.427Zm-2.43 0-.903-.428.903.428ZM70.5 54h35v-2h-35v2ZM122 70.5v26.25h2V70.5h-2ZM54 96.75V70.5h-2v26.25h2ZM105.5 54c9.113 0 16.5 7.387 16.5 16.5h2c0-10.217-8.283-18.5-18.5-18.5v2Zm-35-2C60.283 52 52 60.283 52 70.5h2C54 61.387 61.387 54 70.5 54v-2ZM122 96.75c0 7.687-5.257 14.149-12.374 15.98l.498 1.937C118.103 112.613 124 105.372 124 96.75h-2Zm-55.626 15.98C59.258 110.899 54 104.437 54 96.75h-2c0 8.622 5.897 15.863 13.876 17.917l.498-1.937Zm26.642-30.949 17.373-10.424-1.028-1.715-17.374 10.424 1.03 1.715ZM65.61 71.357l17.374 10.424 1.029-1.715-17.374-10.424-1.028 1.716Zm26.377 8.71a7.75 7.75 0 0 1-7.974 0l-1.03 1.714a9.75 9.75 0 0 0 10.033 0l-1.029-1.715Zm-3.676 26.648 1.654 3.498 1.808-.856-1.655-3.497-1.807.855Zm3.428 4.831 3.7.561.3-1.977-3.7-.561-.3 1.977Zm3.887 1.281-2.677 2.723 1.426 1.402 2.677-2.722-1.426-1.403Zm-3.34 4.836.632 3.844 1.973-.324-.632-3.844-1.973.324Zm.134 4.295-3.309-1.815-.962 1.753 3.31 1.815.961-1.753Zm-5.531-1.815-3.31 1.815.962 1.753 3.31-1.815-.962-1.753Zm-3.807 1.364.632-3.844-1.973-.324-.632 3.844 1.973.324Zm-.031-5.957-2.677-2.723-1.426 1.403 2.677 2.722 1.426-1.402Zm-2.49-3.443 3.7-.561-.3-1.977-3.7.561.3 1.977Zm5.474-1.894 1.654-3.498-1.807-.855-1.655 3.497 1.808.856Zm-1.774 1.333a2.359 2.359 0 0 0 1.774-1.333l-1.808-.856a.36.36 0 0 1-.266.212l.3 1.977Zm-3.887 1.281a.438.438 0 0 1-.102-.449c.052-.165.162-.251.289-.271l-.3-1.977c-1.974.299-2.649 2.742-1.313 4.1l1.426-1.403Zm3.34 4.836a2.45 2.45 0 0 0-.663-2.113l-1.426 1.402a.45.45 0 0 1 .116.387l1.973.324Zm-.134 4.295a.295.295 0 0 1-.342-.028.425.425 0 0 1-.156-.423l-1.973-.324c-.31 1.879 1.622 3.521 3.432 2.528l-.961-1.753Zm5.531-1.815a2.303 2.303 0 0 0-2.222 0l.962 1.753a.306.306 0 0 1 .298 0l.962-1.753Zm3.807 1.364a.425.425 0 0 1-.156.423.295.295 0 0 1-.342.028l-.961 1.753c1.81.993 3.741-.649 3.432-2.528l-1.973.324Zm.031-5.957a2.45 2.45 0 0 0-.663 2.113l1.973-.324a.45.45 0 0 1 .116-.387l-1.426-1.402Zm2.49-3.443c.127.02.237.106.289.271a.438.438 0 0 1-.102.449l1.426 1.403c1.336-1.358.661-3.801-1.313-4.1l-.3 1.977Zm-5.474-1.894c.334.705.99 1.215 1.774 1.333l.3-1.977a.36.36 0 0 1-.266-.212l-1.808.856Zm.153-4.353a2.33 2.33 0 0 0-4.236 0l1.807.855c.077-.161.198-.215.311-.215.113 0 .234.054.31.215l1.808-.855Z"/>
    </g>
  </g>
  <defs>
    <filter id="b" width="200" height="200" x="-8" y="-8" color-interpolation-filters="sRGB" filterUnits="userSpaceOnUse">
      <feFlood flood-opacity="0" result="BackgroundImageFix"/>
      <feColorMatrix in="SourceAlpha" result="hardAlpha" values="0 0 0 0 0 0 0 0 0 0 0 0 0 0 0 0 0 0 127 0"/>
      <feOffset dx="4" dy="4"/>
      <feGaussianBlur stdDeviation="15"/>
      <feComposite in2="hardAlpha" operator="out"/>
      <feColorMatrix values="0 0 0 0 0.85098 0 0 0 0 0.2 0 0 0 0 0.611765 0 0 0 1 0"/>
      <feBlend in2="BackgroundImageFix" result="effect1_dropShadow_2_1275"/>
      <feBlend in="SourceGraphic" in2="effect1_dropShadow_2_1275" result="shape"/>
    </filter>
    <filter id="c" width="200" height="200" x="-8" y="-8" color-interpolation-filters="sRGB" filterUnits="userSpaceOnUse">
      <feFlood flood-opacity="0" result="BackgroundImageFix"/>
      <feColorMatrix in="SourceAlpha" result="hardAlpha" values="0 0 0 0 0 0 0 0 0 0 0 0 0 0 0 0 0 0 127 0"/>
      <feOffset dx="4" dy="4"/>
      <feGaussianBlur stdDeviation="15"/>
      <feComposite in2="hardAlpha" operator="out"/>
      <feColorMatrix values="0 0 0 0 0.85098 0 0 0 0 0.2 0 0 0 0 0.611765 0 0 0 1 0"/>
      <feBlend in2="BackgroundImageFix" result="effect1_dropShadow_2_1275"/>
      <feBlend in="SourceGraphic" in2="effect1_dropShadow_2_1275" result="shape"/>
    </filter>
    <filter id="d" width="84" height="84.01" x="46" y="46" color-interpolation-filters="sRGB" filterUnits="userSpaceOnUse">
      <feFlood flood-opacity="0" result="BackgroundImageFix"/>
      <feColorMatrix in="SourceAlpha" result="hardAlpha" values="0 0 0 0 0 0 0 0 0 0 0 0 0 0 0 0 0 0 127 0"/>
      <feOffset/>
      <feGaussianBlur stdDeviation="3"/>
      <feComposite in2="hardAlpha" operator="out"/>
      <feColorMatrix values="0 0 0 0 0.85098 0 0 0 0 0.2 0 0 0 0 0.611765 0 0 0 1 0"/>
      <feBlend in2="BackgroundImageFix" result="effect1_dropShadow_2_1275"/>
      <feBlend in="SourceGraphic" in2="effect1_dropShadow_2_1275" result="shape"/>
    </filter>
    <clipPath id="a">
      <path fill="#fff" d="M0 0h180v180H0z"/>
    </clipPath>
  </defs>
</svg>
