<svg width="26" height="26" viewBox="0 0 26 26" fill="none" xmlns="http://www.w3.org/2000/svg">
<g filter="url(#filter0_d_77_344)">
<path d="M17.8754 17.3898C17.6079 17.4586 17.447 17.7312 17.5158 17.9986C17.5846 18.266 17.8572 18.427 18.1246 18.3582L17.8754 17.3898ZM7.87537 18.3582C8.1428 18.427 8.41539 18.266 8.48422 17.9986C8.55305 17.7312 8.39206 17.4586 8.12463 17.3898L7.87537 18.3582ZM14.029 10.3826L13.7717 9.95386V9.95386L14.029 10.3826ZM18.2572 8.42875C18.494 8.28667 18.5708 7.97954 18.4287 7.74275C18.2867 7.50596 17.9795 7.42918 17.7428 7.57125L18.2572 8.42875ZM8.25725 7.57125C8.02046 7.42918 7.71333 7.50596 7.57125 7.74275C7.42918 7.97954 7.50596 8.28667 7.74275 8.42875L8.25725 7.57125ZM11.971 10.3826L11.7138 10.8114L11.971 10.3826ZM12.1111 17.1561L12.0362 16.6617L12.1111 17.1561ZM12.3442 16.9794L12.7962 17.1932L12.3442 16.9794ZM11.0938 17.8351L11.4503 17.4845L11.0938 17.8351ZM11.2654 17.2843L11.3403 17.7786L11.2654 17.2843ZM11.7948 18.7431L12.2882 18.8243L11.7948 18.7431ZM11.7058 18.4573L11.3493 18.8079L11.7058 18.4573ZM12.0995 19.9622L11.8591 19.5238L11.8591 19.5238L12.0995 19.9622ZM11.6504 19.6218L11.157 19.5406L11.6504 19.6218ZM13.1441 19.5474L12.9036 19.9858L12.9036 19.9858L13.1441 19.5474ZM12.8559 19.5474L13.0964 19.9858V19.9858L12.8559 19.5474ZM14.3496 19.6218L13.8563 19.7029L14.3496 19.6218ZM13.9005 19.9622L14.1409 19.5238V19.5238L13.9005 19.9622ZM14.2942 18.4573L13.9377 18.1067L14.2942 18.4573ZM14.2052 18.7431L14.6986 18.662L14.2052 18.7431ZM14.7346 17.2843L14.6597 17.7786L14.7346 17.2843ZM14.9062 17.8351L15.2627 18.1857L14.9062 17.8351ZM13.6558 16.9794L14.1078 16.7656H14.1078L13.6558 16.9794ZM13.8889 17.1561L13.9638 16.6617L13.8889 17.1561ZM13.2776 16.18L12.8256 16.3938L13.2776 16.18ZM12.7224 16.18L12.2704 15.9662L12.7224 16.18ZM9 4.5H17V3.5H9V4.5ZM20.5 8V14H21.5V8H20.5ZM5.5 14V8H4.5V14H5.5ZM17 4.5C18.933 4.5 20.5 6.067 20.5 8H21.5C21.5 5.51472 19.4853 3.5 17 3.5V4.5ZM9 3.5C6.51472 3.5 4.5 5.51472 4.5 8H5.5C5.5 6.067 7.067 4.5 9 4.5V3.5ZM20.5 14C20.5 15.6302 19.3851 17.0012 17.8754 17.3898L18.1246 18.3582C20.0654 17.8587 21.5 16.0975 21.5 14H20.5ZM8.12463 17.3898C6.61495 17.0012 5.5 15.6302 5.5 14H4.5C4.5 16.0975 5.9346 17.8587 7.87537 18.3582L8.12463 17.3898ZM14.2862 10.8114L18.2572 8.42875L17.7428 7.57125L13.7717 9.95386L14.2862 10.8114ZM7.74275 8.42875L11.7138 10.8114L12.2283 9.95386L8.25725 7.57125L7.74275 8.42875ZM13.7717 9.95386C13.2967 10.2389 12.7033 10.2389 12.2283 9.95386L11.7138 10.8114C12.5055 11.2864 13.4945 11.2864 14.2862 10.8114L13.7717 9.95386ZM12.8256 16.3938L13.2038 17.1932L14.1078 16.7656L13.7296 15.9662L12.8256 16.3938ZM13.814 17.6504L14.6597 17.7786L14.8095 16.7899L13.9638 16.6617L13.814 17.6504ZM14.5497 17.4845L13.9377 18.1067L14.6507 18.8079L15.2627 18.1857L14.5497 17.4845ZM13.7118 18.8243L13.8563 19.7029L14.843 19.5406L14.6986 18.662L13.7118 18.8243ZM14.1409 19.5238L13.3845 19.109L12.9036 19.9858L13.6601 20.4006L14.1409 19.5238ZM12.6155 19.109L11.8591 19.5238L12.3399 20.4006L13.0964 19.9858L12.6155 19.109ZM12.1437 19.7029L12.2882 18.8243L11.3014 18.662L11.157 19.5406L12.1437 19.7029ZM12.0623 18.1067L11.4503 17.4845L10.7373 18.1857L11.3493 18.8079L12.0623 18.1067ZM11.3403 17.7786L12.186 17.6504L12.0362 16.6617L11.1905 16.7899L11.3403 17.7786ZM12.7962 17.1932L13.1744 16.3938L12.2704 15.9662L11.8922 16.7656L12.7962 17.1932ZM12.186 17.6504C12.458 17.6092 12.6828 17.4329 12.7962 17.1932L11.8922 16.7656C11.9154 16.7166 11.9659 16.6724 12.0362 16.6617L12.186 17.6504ZM11.4503 17.4845C11.5012 17.5362 11.5076 17.6055 11.4929 17.6527C11.4779 17.7007 11.4274 17.7654 11.3403 17.7786L11.1905 16.7899C10.5046 16.8939 10.2878 17.7285 10.7373 18.1857L11.4503 17.4845ZM12.2882 18.8243C12.3307 18.5658 12.2498 18.2974 12.0623 18.1067L11.3493 18.8079C11.3077 18.7656 11.2934 18.711 11.3014 18.662L12.2882 18.8243ZM11.8591 19.5238C11.9346 19.4824 12.0229 19.4993 12.0755 19.5391C12.1262 19.5775 12.1537 19.6423 12.1437 19.7029L11.157 19.5406C11.054 20.1667 11.7043 20.7492 12.3399 20.4006L11.8591 19.5238ZM13.3845 19.109C13.1445 18.9774 12.8555 18.9774 12.6155 19.109L13.0964 19.9858C13.0368 20.0184 12.9632 20.0184 12.9036 19.9858L13.3845 19.109ZM13.8563 19.7029C13.8463 19.6423 13.8738 19.5775 13.9245 19.5391C13.9771 19.4993 14.0654 19.4824 14.1409 19.5238L13.6601 20.4006C14.2957 20.7492 14.946 20.1667 14.843 19.5406L13.8563 19.7029ZM13.9377 18.1067C13.7502 18.2974 13.6693 18.5658 13.7118 18.8243L14.6986 18.662C14.7066 18.711 14.6923 18.7656 14.6507 18.8079L13.9377 18.1067ZM14.6597 17.7786C14.5726 17.7654 14.5221 17.7007 14.5071 17.6527C14.4924 17.6055 14.4988 17.5362 14.5497 17.4845L15.2627 18.1857C15.7122 17.7285 15.4954 16.8939 14.8095 16.7899L14.6597 17.7786ZM13.2038 17.1932C13.3172 17.4329 13.542 17.6092 13.814 17.6504L13.9638 16.6617C14.0341 16.6724 14.0846 16.7166 14.1078 16.7656L13.2038 17.1932ZM13.7296 15.9662C13.4355 15.3446 12.5645 15.3446 12.2704 15.9662L13.1744 16.3938C13.145 16.456 13.0746 16.5 13 16.5C12.9254 16.5 12.855 16.456 12.8256 16.3938L13.7296 15.9662Z" fill="white"/>
</g>
<defs>
<filter id="filter0_d_77_344" x="0.5" y="0.5" width="25" height="25.0052" filterUnits="userSpaceOnUse" color-interpolation-filters="sRGB">
<feFlood flood-opacity="0" result="BackgroundImageFix"/>
<feColorMatrix in="SourceAlpha" type="matrix" values="0 0 0 0 0 0 0 0 0 0 0 0 0 0 0 0 0 0 127 0" result="hardAlpha"/>
<feOffset dy="1"/>
<feGaussianBlur stdDeviation="2"/>
<feComposite in2="hardAlpha" operator="out"/>
<feColorMatrix type="matrix" values="0 0 0 0 1 0 0 0 0 1 0 0 0 0 1 0 0 0 0.4 0"/>
<feBlend mode="normal" in2="BackgroundImageFix" result="effect1_dropShadow_77_344"/>
<feBlend mode="normal" in="SourceGraphic" in2="effect1_dropShadow_77_344" result="shape"/>
</filter>
</defs>
</svg>
