<svg xmlns="http://www.w3.org/2000/svg" fill="none" viewBox="0 0 32 29">
  <path fill="#918E8E" fill-rule="evenodd" d="M31.23 2.417c0-.641-.234-1.256-.653-1.71A2.147 2.147 0 0 0 29 0H2.23A2.15 2.15 0 0 0 .654.708 2.523 2.523 0 0 0 0 2.417c0 .64.235 1.255.653 1.708.419.454.986.708 1.578.708H29c.592 0 1.159-.254 1.577-.708a2.522 2.522 0 0 0 .654-1.708Zm0 12.083a2.52 2.52 0 0 0-.653-1.709A2.147 2.147 0 0 0 29 12.083H15.615c-.591 0-1.159.255-1.577.708a2.522 2.522 0 0 0-.653 1.709c0 .64.235 1.255.653 1.709.418.453.986.708 1.577.708H29c.592 0 1.159-.255 1.577-.708a2.523 2.523 0 0 0 .654-1.71Zm0 12.083c0-.64-.234-1.255-.653-1.708A2.147 2.147 0 0 0 29 24.167H2.23c-.59 0-1.158.254-1.577.708A2.523 2.523 0 0 0 0 26.583c0 .641.235 1.256.653 1.71A2.15 2.15 0 0 0 2.231 29H29c.592 0 1.159-.255 1.577-.708a2.523 2.523 0 0 0 .654-1.709Z" clip-rule="evenodd"/>
</svg>
